<svg width="290" height="308" viewBox="0 0 290 308" fill="none" xmlns="http://www.w3.org/2000/svg">
<path d="M252.748 216.935C256.623 214.812 261.187 214.535 265.489 215.29C267.8 215.696 270.21 216.43 271.783 218.275C273.356 220.119 273.653 223.364 271.848 224.948C270.773 225.892 269.273 226.034 267.879 226.018C264.511 225.976 260.774 225.346 258.083 227.499C256.548 228.726 255.526 230.768 253.69 231.372C251.895 231.963 249.868 230.837 248.916 229.116C247.963 227.395 247.932 225.243 248.376 223.304C248.377 223.303 248.844 219.074 252.748 216.935Z" fill="#EBEBEB"/>
<path d="M243.869 198.731C246.239 202.325 250.845 201.135 252.98 198.942C255.116 196.747 256.018 193.568 256.84 190.535C258.718 183.606 260.61 176.337 259.214 169.282C258.797 167.173 258.054 165.068 256.659 163.504C255.263 161.939 253.117 161.008 251.155 161.558C248.832 162.21 247.389 164.625 246.346 166.924C243.279 173.678 241.656 181.167 241.632 188.665C241.62 192.167 242.009 195.84 243.869 198.731Z" fill="#EBEBEB"/>
<path d="M237.362 203.889C239.934 200.645 240.423 195.915 239.278 191.852C238.133 187.789 235.546 184.332 232.566 181.511C229.071 178.202 224.962 175.628 220.546 173.978C218.807 173.329 216.974 172.817 215.14 173.003C213.306 173.189 211.459 174.185 210.603 175.918C209.338 178.48 210.551 181.588 211.863 184.124C214.174 188.591 216.816 192.865 219.758 196.892C222.124 200.132 224.835 203.329 228.441 204.793C232.048 206.257 235.794 206.085 237.706 203.428" fill="#EBEBEB"/>
<path d="M243.709 252.955C243.753 252.958 243.825 252.376 243.923 251.322C244.032 250.134 244.169 248.641 244.331 246.864C244.527 244.989 244.785 242.756 245.276 240.326C245.765 237.901 246.53 235.273 247.513 232.608C248.531 229.959 249.773 227.552 251.224 225.625C252.664 223.691 254.339 222.291 255.915 221.483C257.484 220.66 258.892 220.325 259.865 220.177C260.846 220.07 261.396 219.988 261.396 219.942C261.397 219.895 260.846 219.887 259.838 219.916C258.839 219.987 257.373 220.256 255.719 221.055C254.059 221.836 252.281 223.258 250.771 225.232C249.248 227.198 247.96 229.66 246.925 232.356C245.924 235.067 245.17 237.722 244.703 240.199C244.237 242.673 244.024 244.929 243.885 246.821C243.751 248.714 243.701 250.246 243.677 251.306C243.654 252.366 243.666 252.953 243.709 252.955Z" fill="#E0E0E0"/>
<path d="M243.998 249.526C244.02 249.524 244.033 249.263 244.039 248.767C244.037 248.198 244.036 247.48 244.034 246.6C244.029 244.719 244.03 241.997 244.125 238.636C244.282 231.914 244.827 224.679 245.88 214.479C246.877 204.888 248.214 193.726 249.626 186.469C249.929 184.819 250.234 183.333 250.521 182.032C250.795 180.729 251.029 179.605 251.254 178.696C251.448 177.84 251.606 177.143 251.731 176.589C251.833 176.105 251.877 175.848 251.856 175.842C251.835 175.835 251.75 176.08 251.608 176.552C251.453 177.098 251.257 177.785 251.016 178.629C250.753 179.53 250.484 180.646 250.176 181.945C249.856 183.24 249.52 184.722 249.188 186.37C247.791 192.945 246.312 202.135 245.249 212.36C244.194 222.581 243.719 231.888 243.677 238.627C243.64 241.996 243.707 244.724 243.788 246.606C243.839 247.487 243.88 248.204 243.913 248.772C243.947 249.268 243.976 249.527 243.998 249.526Z" fill="#E0E0E0"/>
<path d="M244.04 231.576C244.084 231.574 244.077 230.77 244.025 229.312C243.947 227.857 243.758 225.754 243.373 223.178C242.964 220.608 242.392 217.557 241.495 214.241C241.105 212.725 240.191 209.093 237.976 203.666C235.057 196.312 231.092 190.301 227.643 186.577C226.833 185.588 225.932 184.875 225.212 184.177C224.839 183.842 224.509 183.508 224.174 183.243C223.836 182.996 223.522 182.766 223.23 182.553C222.095 181.728 221.459 181.293 221.436 181.333C221.334 181.48 223.979 183.132 227.318 186.906C230.645 190.672 234.499 196.642 237.394 203.934C239.008 207.888 240.134 211.416 240.933 214.411C241.855 217.695 242.468 220.715 242.931 223.259C243.372 225.809 243.626 227.891 243.78 229.333C243.906 230.777 243.997 231.578 244.04 231.576Z" fill="#E0E0E0"/>
<path d="M227.705 263.24L229.398 287.881H259.204L260.898 263.24H227.705Z" fill="#E0E0E0"/>
<path d="M264.455 253.527H224.826V263.24H264.455V253.527Z" fill="#E0E0E0"/>
<path d="M224.826 286.938V289.63H226.688H263.8V286.938H224.826Z" fill="#EBEBEB"/>
<path d="M228.513 294.369L226.688 289.63H262.38L260.251 294.369H228.513Z" fill="#E0E0E0"/>
<path d="M260.345 271.293C260.352 271.299 260.304 271.376 260.206 271.519C260.087 271.686 259.941 271.893 259.76 272.147C259.337 272.722 258.755 273.513 258.024 274.507L257.946 274.612L257.872 274.502C256.78 272.899 255.323 270.757 253.606 268.236H253.851C252.582 270.144 251.169 272.27 249.651 274.552L249.52 274.75L249.372 274.564C247.823 272.605 246.139 270.478 244.391 268.27L244.678 268.266C244.592 268.381 244.499 268.506 244.405 268.632C242.86 270.689 241.365 272.679 239.951 274.562L239.802 274.76L239.665 274.554C238.153 272.282 236.74 270.159 235.463 268.24L235.707 268.252C233.637 270.758 231.881 272.883 230.533 274.514L230.441 274.626L230.371 274.501C229.689 273.284 229.145 272.313 228.75 271.609C228.581 271.296 228.444 271.042 228.335 270.839C228.243 270.663 228.199 270.57 228.208 270.564C228.216 270.56 228.274 270.643 228.381 270.808C228.502 271.003 228.654 271.247 228.841 271.549C229.255 272.24 229.826 273.193 230.542 274.388L230.38 274.374C231.707 272.723 233.434 270.572 235.472 268.036L235.601 267.876L235.717 268.048C237.006 269.959 238.431 272.072 239.957 274.334L239.671 274.326C241.082 272.44 242.574 270.447 244.115 268.387C244.209 268.261 244.302 268.137 244.389 268.021L244.53 267.833L244.676 268.017C246.419 270.23 248.097 272.361 249.643 274.323L249.364 274.335C250.897 272.064 252.324 269.95 253.606 268.051L253.73 267.866L253.852 268.051C255.532 270.599 256.959 272.764 258.027 274.384L257.876 274.379C258.637 273.41 259.242 272.64 259.682 272.079C259.878 271.838 260.037 271.642 260.166 271.485C260.277 271.353 260.338 271.287 260.345 271.293Z" fill="#F5F5F5"/>
<path d="M261.313 263.077C261.313 263.186 253.844 263.274 244.634 263.274C235.42 263.274 227.953 263.186 227.953 263.077C227.953 262.968 235.42 262.88 244.634 262.88C253.844 262.88 261.313 262.968 261.313 263.077Z" fill="#F5F5F5"/>
<path d="M262.818 289.896C262.818 290.005 254.702 290.093 244.692 290.093C234.678 290.093 226.563 290.005 226.563 289.896C226.563 289.787 234.678 289.699 244.692 289.699C254.702 289.699 262.818 289.787 262.818 289.896Z" fill="#F5F5F5"/>
<path d="M271.348 36.7308H199.07V116.752H271.348V36.7308Z" fill="#E0E0E0"/>
<path d="M266.454 36.7308H194.175V116.752H266.454V36.7308Z" fill="#FAFAFA"/>
<path d="M266.476 116.776H194.153V36.7068H266.476V116.776ZM194.197 116.728H266.431V36.7549H194.197V116.728Z" fill="#E0E0E0"/>
<path d="M256.737 47.488H203.891V105.994H256.737V47.488Z" fill="#FAFAFA"/>
<path d="M203.891 106.384C203.933 106.436 203.431 107.048 202.587 107.994C201.743 108.94 200.557 110.22 199.228 111.611C197.898 113.001 196.676 114.241 195.775 115.121C194.874 116 194.293 116.52 194.248 116.471C194.202 116.423 194.701 115.814 195.545 114.868C196.389 113.922 197.578 112.639 198.912 111.244C200.245 109.849 201.469 108.608 202.37 107.728C203.272 106.848 203.85 106.331 203.891 106.384Z" fill="#E0E0E0"/>
<path d="M256.737 106.24C256.786 106.195 257.363 106.728 258.253 107.624C259.144 108.521 260.349 109.78 261.659 111.192C262.969 112.605 264.136 113.902 264.964 114.859C265.792 115.816 266.282 116.433 266.236 116.481C266.19 116.529 265.616 116 264.726 115.103C263.836 114.207 262.627 112.944 261.314 111.527C260.001 110.111 258.831 108.811 258.003 107.854C257.175 106.898 256.688 106.284 256.737 106.24Z" fill="#E0E0E0"/>
<path d="M256.593 47.6439C256.551 47.5915 257.053 46.9792 257.897 46.0337C258.741 45.0875 259.927 43.8074 261.256 42.4171C262.586 41.0256 263.808 39.7868 264.709 38.9072C265.61 38.0275 266.19 37.5076 266.236 37.5563C266.281 37.6049 265.783 38.2135 264.939 39.1597C264.095 40.1059 262.906 41.389 261.572 42.7836C260.239 44.1783 259.014 45.4201 258.113 46.2998C257.212 47.1794 256.634 47.6962 256.593 47.6439Z" fill="#E0E0E0"/>
<path d="M203.746 47.7874C203.697 47.8318 203.121 47.2989 202.23 46.4027C201.339 45.5064 200.134 44.2467 198.825 42.8348C197.515 41.4223 196.348 40.125 195.52 39.1683C194.692 38.2111 194.202 37.5945 194.248 37.5464C194.294 37.4978 194.867 38.0275 195.758 38.9238C196.649 39.8201 197.857 41.0835 199.17 42.4997C200.483 43.9159 201.653 45.2162 202.481 46.1735C203.309 47.1301 203.796 47.7431 203.746 47.7874Z" fill="#E0E0E0"/>
<path d="M256.593 105.995C256.589 105.991 256.585 105.895 256.581 105.711C256.578 105.511 256.574 105.242 256.569 104.894C256.564 104.16 256.556 103.105 256.546 101.735C256.533 98.9641 256.515 94.9318 256.492 89.8116C256.467 79.5644 256.431 64.9671 256.388 47.4881L256.593 47.7043C241.209 47.7135 223.142 47.7246 203.897 47.7363H203.891L204.125 47.4881C204.113 68.9624 204.101 89.052 204.092 105.995L203.891 105.781C219.683 105.826 232.831 105.864 242.05 105.89C246.656 105.914 250.279 105.934 252.769 105.946C253.998 105.957 254.945 105.965 255.604 105.97C255.916 105.975 256.158 105.98 256.337 105.983C256.503 105.987 256.589 105.991 256.593 105.995C256.597 105.999 256.518 106.003 256.36 106.007C256.185 106.01 255.952 106.014 255.649 106.019C254.999 106.024 254.065 106.033 252.852 106.043C250.373 106.056 246.765 106.075 242.178 106.099C232.929 106.125 219.736 106.163 203.891 106.208L203.691 106.208V105.994C203.681 89.0514 203.67 68.9618 203.658 47.4874V47.2392H203.892H203.897C223.143 47.2509 241.209 47.2614 256.593 47.2712H256.798L256.797 47.4881C256.754 65.0244 256.719 79.6697 256.694 89.9502C256.671 95.0494 256.653 99.0651 256.64 101.825C256.63 103.178 256.622 104.218 256.616 104.942C256.612 105.28 256.608 105.541 256.605 105.735C256.6 105.911 256.597 105.999 256.593 105.995Z" fill="#E0E0E0"/>
<path d="M239.131 67.3768H221.497V86.1051H239.131V67.3768Z" fill="#EBEBEB"/>
<path d="M152.018 107.517H15.8027V112.097H152.018V107.517Z" fill="#E0E0E0"/>
<path d="M45.7029 109.807H38.8055V124.314H45.7029V109.807Z" fill="#E0E0E0"/>
<path d="M127.483 107.517H120.587V124.314H127.483V107.517Z" fill="#E0E0E0"/>
<path d="M35.6829 76.7413L40.1425 107.866H66.0499L72.0628 77.1909L35.6829 76.7413Z" fill="#EBEBEB"/>
<path d="M68.4407 96.6886C68.4407 96.7779 61.802 96.85 53.6147 96.85C45.4245 96.85 38.7876 96.7779 38.7876 96.6886C38.7876 96.5993 45.4251 96.5272 53.6147 96.5272C61.802 96.5272 68.4407 96.5999 68.4407 96.6886Z" fill="#FAFAFA"/>
<path d="M68.541 95.1578C68.541 95.2471 61.8577 95.3192 53.6147 95.3192C45.3694 95.3192 38.6873 95.2471 38.6873 95.1578C38.6873 95.0685 45.3694 94.9964 53.6147 94.9964C61.8571 94.9964 68.541 95.0691 68.541 95.1578Z" fill="#FAFAFA"/>
<path d="M68.49 93.4293C68.49 93.5187 61.8066 93.5907 53.5637 93.5907C45.3178 93.5907 38.6356 93.5187 38.6356 93.4293C38.6356 93.34 45.3178 93.2679 53.5637 93.2679C61.806 93.2679 68.49 93.34 68.49 93.4293Z" fill="#FAFAFA"/>
<path d="M43.1179 106.09C43.035 106.105 42.6794 104.35 42.3233 102.171C41.9672 99.991 41.7456 98.212 41.8286 98.1966C41.9115 98.1812 42.267 99.9355 42.6232 102.116C42.9793 104.295 43.2008 106.075 43.1179 106.09Z" fill="#FAFAFA"/>
<path d="M44.8805 105.759C44.7947 105.761 44.6955 104.047 44.5592 101.936C44.4252 99.824 44.3051 98.111 44.3904 98.1005C44.4716 98.09 44.7285 99.7926 44.8625 101.914C44.9994 104.033 44.9623 105.758 44.8805 105.759Z" fill="#FAFAFA"/>
<path d="M48.0925 105.758C48.0119 105.773 47.6581 104.025 47.4185 101.838C47.1755 99.6497 47.1396 97.8627 47.2213 97.8578C47.3078 97.8522 47.4789 99.6226 47.7207 101.8C47.9591 103.978 48.1778 105.743 48.0925 105.758Z" fill="#FAFAFA"/>
<path d="M50.3475 105.922C50.2663 105.929 50.0546 104.148 49.9885 101.938C49.9195 99.7273 50.0216 97.936 50.1033 97.9378C50.1898 97.9397 50.224 99.7261 50.2924 101.928C50.3585 104.129 50.4334 105.914 50.3475 105.922Z" fill="#FAFAFA"/>
<path d="M54.3392 105.759C54.2551 105.762 54.1333 104.07 54.0666 101.979C53.9999 99.8875 54.0138 98.1898 54.0979 98.1867C54.182 98.1836 54.3038 99.8758 54.3705 101.968C54.4372 104.058 54.4233 105.756 54.3392 105.759Z" fill="#FAFAFA"/>
<path d="M57.2548 105.923C57.1707 105.922 57.1161 104.171 57.1324 102.012C57.1492 99.8524 57.2304 98.1023 57.3145 98.1029C57.3986 98.1036 57.4531 99.8548 57.4363 102.015C57.4201 104.174 57.3389 105.924 57.2548 105.923Z" fill="#FAFAFA"/>
<path d="M59.9889 105.507C59.9054 105.499 60.004 103.669 60.2099 101.42C60.4158 99.1705 60.6501 97.3545 60.7336 97.3631C60.8172 97.3718 60.718 99.2019 60.5127 101.451C60.3068 103.7 60.0724 105.516 59.9889 105.507Z" fill="#FAFAFA"/>
<path d="M63.5135 105.099C63.4335 105.089 63.5593 103.519 63.9497 101.623C64.336 99.7267 64.8359 98.2434 64.9131 98.2686C64.9966 98.2951 64.63 99.8099 64.2466 101.692C63.8592 103.573 63.5994 105.112 63.5135 105.099Z" fill="#FAFAFA"/>
<path d="M61.0184 15.3261C61.023 15.3279 61.0126 15.3797 60.9871 15.4795C60.9546 15.5971 60.9152 15.7413 60.8659 15.9193C60.7458 16.3283 60.5811 16.8895 60.3729 17.5991C60.1513 18.3254 59.8868 19.2167 59.6125 20.2621C59.3335 21.3056 58.9867 22.4846 58.6781 23.8102C58.3492 25.1303 57.9931 26.5767 57.6689 28.1444C57.3093 29.7035 57.0071 31.3889 56.6696 33.1568C56.0484 36.7043 55.4823 40.6283 55.0821 44.7715C54.7028 48.9184 54.5282 52.8842 54.4766 56.4927C54.4783 58.297 54.4609 60.0126 54.5236 61.6166C54.5502 63.2219 54.6297 64.7145 54.7068 66.0771C54.7625 67.4415 54.8832 68.6704 54.9626 69.7515C55.0369 70.8338 55.1302 71.7621 55.2126 72.5211C55.2845 73.2609 55.3414 73.8448 55.3831 74.2711C55.3982 74.4559 55.4104 74.6056 55.4197 74.7276C55.426 74.8304 55.4272 74.884 55.422 74.8847C55.4168 74.8853 55.4057 74.8341 55.3889 74.7319C55.3709 74.6111 55.3495 74.4627 55.3222 74.2797C55.2671 73.8553 55.1911 73.2726 55.0954 72.5358C54.9951 71.7788 54.8843 70.8505 54.7933 69.7682C54.6976 68.6871 54.5624 67.4575 54.4922 66.0919C54.4012 64.728 54.309 63.233 54.2718 61.6246C54.1988 60.0175 54.2063 58.2989 54.197 56.4897C54.2336 52.8725 54.4 48.8956 54.7799 44.7388C55.1807 40.5851 55.7572 36.6526 56.3946 33.1001C56.7403 31.3291 57.0524 29.6425 57.4236 28.0828C57.7594 26.5145 58.1283 25.0681 58.471 23.7499C58.7935 22.4261 59.1554 21.2489 59.4501 20.2091C59.7401 19.1674 60.022 18.281 60.2609 17.5597C60.4923 16.8574 60.675 16.3024 60.8079 15.8977C60.8682 15.724 60.9175 15.5829 60.9575 15.4684C60.9929 15.3729 61.0132 15.3242 61.0184 15.3261Z" fill="#EBEBEB"/>
<path d="M56.3424 34.5982C57.0413 32.3745 58.4931 30.4273 60.3705 29.1947C61.0126 28.7733 61.8217 28.4302 62.5014 28.7789C63.4051 29.2427 63.4782 30.5936 63.2085 31.6205C62.7549 33.3484 61.6923 34.8871 60.2766 35.8647C58.8614 36.8429 57.5471 37.3037 55.8761 37.0438" fill="#EBEBEB"/>
<path d="M54.7689 47.6119C55.4382 44.9261 57.4554 41.1069 59.551 39.4443C59.8822 39.1813 60.2365 38.9324 60.6385 38.8289C61.0404 38.7261 61.5027 38.792 61.8014 39.0957C62.2294 39.5312 62.1871 40.2636 62.0612 40.879C61.2602 44.7973 58.1862 48.0843 54.5021 48.9609" fill="#EBEBEB"/>
<path d="M54.3351 59.067C55.3657 56.5149 57.0506 54.2653 59.1595 52.623C59.6543 52.238 60.2395 51.8697 60.8427 51.9855C61.7579 52.1616 62.1732 53.3487 62.0926 54.333C61.9261 56.3591 60.4692 57.9834 58.9646 59.2426C57.3447 60.5984 54.5015 61.6788 54.5015 61.6788" fill="#EBEBEB"/>
<path d="M54.5786 67.3017C55.6377 65.3872 56.9549 63.5872 58.6833 62.338C59.0585 62.0663 59.4651 61.8174 59.9152 61.7515C60.3647 61.6862 60.8681 61.8408 61.1239 62.2394C61.5351 62.8813 61.1431 63.7492 60.7023 64.3689C59.1786 66.5101 57.2565 68.1296 54.8448 68.9322" fill="#EBEBEB"/>
<path d="M54.3757 63.9568C52.6072 61.6548 50.6399 59.5259 48.5055 57.6059C48.1726 57.3065 47.7509 56.9923 47.3356 57.1358C47.0143 57.2467 46.82 57.6157 46.7974 57.9742C46.7748 58.3321 46.8913 58.6832 47.0207 59.0153C48.3036 62.3084 51.3266 64.8882 54.5787 65.7679" fill="#EBEBEB"/>
<path d="M54.563 53.2403C53.0254 51.25 51.4884 49.2597 49.9514 47.2694C49.5123 46.7014 49.0594 46.1199 48.4556 45.7614C47.8518 45.4029 47.0543 45.3136 46.4882 45.7368C45.9239 46.1587 45.7331 46.9866 45.8572 47.7086C45.9813 48.4299 46.3635 49.0681 46.7568 49.6705C47.694 51.104 48.7636 52.4727 50.1173 53.462C51.471 54.4513 52.7018 55.0944 54.3275 54.84" fill="#EBEBEB"/>
<path d="M55.2039 41.1759C54.3084 38.3324 52.689 35.7502 50.5633 33.7765C50.2078 33.4463 49.818 33.1223 49.354 33.0274C48.4301 32.8377 47.5375 33.657 47.2388 34.605C46.9024 35.6707 47.132 36.8725 47.6598 37.847C48.1876 38.8215 48.9863 39.5983 49.8273 40.2815C51.3776 41.5406 53.1159 42.5373 54.9574 43.2229" fill="#EBEBEB"/>
<path d="M57.0466 30.4187C56.6 26.9574 54.9035 24.077 52.9378 21.276C52.5237 20.6859 51.9455 20.0594 51.2599 20.1703C50.8232 20.2405 50.4705 20.6163 50.2971 21.0481C50.1237 21.4799 50.1034 21.9622 50.1144 22.4316C50.2176 26.6137 52.9344 30.5869 56.6475 31.9839" fill="#EBEBEB"/>
<path d="M58.337 24.9258C58.1757 23.1462 58.0139 21.3536 58.1688 19.574C58.3236 17.7938 58.8149 16.0061 59.8415 14.5893C60.2829 13.9801 60.8362 13.435 61.516 13.1713C62.1951 12.907 63.0153 12.968 63.5703 13.4608C64.0848 13.9173 64.2994 14.6707 64.2739 15.3815C64.2478 16.0924 64.0111 16.7749 63.7542 17.4322C62.5252 20.5713 60.476 24.0474 58.337 24.9258Z" fill="#EBEBEB"/>
<path d="M38.2475 29.0505C38.258 29.0505 38.2667 29.2021 38.2731 29.4897C38.2765 29.8095 38.2806 30.2265 38.2864 30.7458C38.2852 31.2909 38.2881 31.9581 38.3154 32.7324C38.3392 33.5067 38.3444 34.3882 38.4047 35.3608C38.4848 37.308 38.6622 39.6217 38.9406 42.18C39.2393 44.7364 39.6494 47.5355 40.2166 50.4461C40.7984 53.3542 41.4816 56.0936 42.1759 58.5619C42.8893 61.024 43.6021 63.2182 44.265 65.0354C44.5777 65.952 44.9065 66.7614 45.1774 67.4803C45.4453 68.201 45.6947 68.8127 45.9024 69.3117C46.0938 69.7897 46.2481 70.1735 46.3652 70.4679C46.4685 70.734 46.5178 70.8757 46.5079 70.8806C46.4986 70.8856 46.4308 70.7525 46.3095 70.4956C46.1785 70.208 46.0074 69.8316 45.7939 69.3634C45.5695 68.8719 45.3038 68.2663 45.0202 67.5512C44.7343 66.8378 44.3903 66.0321 44.0644 65.1186C43.3736 63.3075 42.6376 61.1146 41.9073 58.6493C41.1963 56.1779 40.5026 53.4312 39.9185 50.5126C39.3495 47.5915 38.9459 44.7807 38.6617 42.2145C38.3978 39.6457 38.2423 37.3234 38.1895 35.3701C38.1426 34.3943 38.1524 33.5104 38.1449 32.7348C38.1339 31.9587 38.1478 31.2909 38.1675 30.7452C38.1855 30.2253 38.2006 29.8082 38.2116 29.4885C38.2249 29.2002 38.2371 29.0499 38.2475 29.0505Z" fill="#E0E0E0"/>
<path d="M38.9696 43.2407C38.9951 41.5671 39.5885 39.91 40.6168 38.6417C40.9683 38.208 41.4503 37.7891 41.9833 37.8711C42.6926 37.9807 43.0163 38.8831 43.0406 39.6445C43.0818 40.9246 42.67 42.2151 41.9044 43.2044C41.1388 44.1937 40.3378 44.8078 39.1471 45.013" fill="#E0E0E0"/>
<path d="M40.5356 52.4604C40.4469 50.4787 41.0466 47.4172 42.1358 45.8064C42.3081 45.5514 42.4989 45.3013 42.7518 45.1393C43.0047 44.9772 43.3324 44.9163 43.5974 45.0549C43.9773 45.2532 44.0968 45.7614 44.1357 46.2092C44.3851 49.0601 42.9577 52.0009 40.6272 53.4399" fill="#E0E0E0"/>
<path d="M42.5621 60.3588C42.7472 58.3857 43.4379 56.4687 44.5411 54.869C44.7998 54.4938 45.124 54.1094 45.5584 54.0503C46.2173 53.961 46.741 54.6743 46.8849 55.363C47.1818 56.7804 46.5195 58.2194 45.7504 59.4206C44.9227 60.7142 43.2059 62.0996 43.2059 62.0996" fill="#E0E0E0"/>
<path d="M44.3967 65.9095C44.7296 64.364 45.2621 62.8375 46.1854 61.5914C46.3861 61.3209 46.6123 61.0585 46.9052 60.9107C47.1981 60.7634 47.5722 60.7536 47.8268 60.9667C48.2369 61.3098 48.1458 61.9899 47.9713 62.5129C47.3681 64.319 46.3873 65.8608 44.9083 66.9586" fill="#E0E0E0"/>
<path d="M43.5807 63.679C41.9103 62.516 40.139 61.5162 38.2969 60.6969C38.0092 60.5694 37.6589 60.4518 37.4055 60.6446C37.2094 60.7937 37.1514 61.0893 37.2088 61.3382C37.2663 61.5871 37.4165 61.7996 37.5719 61.9961C39.113 63.9451 41.694 65.0102 44.0859 64.866" fill="#E0E0E0"/>
<path d="M41.5362 56.34C40.0862 55.3365 38.6362 54.333 37.1862 53.329C36.7721 53.0425 36.3458 52.7505 35.8621 52.6446C35.3783 52.5386 34.8169 52.66 34.5176 53.0776C34.2189 53.494 34.2566 54.1014 34.4875 54.564C34.7183 55.0267 35.1075 55.3741 35.4978 55.6944C36.4264 56.4564 37.4315 57.1432 38.5538 57.5073C39.6761 57.8713 40.6442 58.0278 41.6998 57.4826" fill="#E0E0E0"/>
<path d="M39.5282 47.979C38.3421 46.2474 36.7164 44.8596 34.8691 44.0021C34.5599 43.8586 34.2287 43.7274 33.8941 43.7686C33.2265 43.8506 32.7851 44.6126 32.7735 45.3265C32.7602 46.1291 33.1604 46.8948 33.7178 47.4375C34.2746 47.9802 34.9758 48.3264 35.6869 48.5993C36.9971 49.102 38.3833 49.3829 39.7759 49.4291" fill="#E0E0E0"/>
<path d="M38.6019 40.234C37.5962 37.9795 35.8574 36.4062 33.9515 34.9488C33.5496 34.6414 33.0293 34.3475 32.585 34.5792C32.302 34.727 32.1378 35.0633 32.1071 35.3966C32.0769 35.7305 32.1599 36.0637 32.2631 36.3803C33.1807 39.2041 35.8359 41.288 38.6472 41.3903" fill="#E0E0E0"/>
<path d="M38.3676 36.1992C37.8966 35.0245 37.4239 33.8412 37.1681 32.5938C36.9124 31.3464 36.8851 30.0171 37.2969 28.8177C37.4738 28.3021 37.7406 27.8044 38.1495 27.4699C38.559 27.1348 39.1291 26.9888 39.607 27.197C40.0496 27.3898 40.3489 27.8543 40.4747 28.344C40.6012 28.8337 40.5785 29.3524 40.5368 29.8587C40.3367 32.2765 39.6459 35.112 38.3676 36.1992Z" fill="#E0E0E0"/>
<path d="M71.0031 28.7487C71.0135 28.7487 71.0257 28.899 71.039 29.1861C71.0501 29.5058 71.0651 29.9228 71.0831 30.4427C71.1028 30.9885 71.1167 31.6569 71.1057 32.4324C71.0982 33.2079 71.108 34.0925 71.0611 35.0683C71.0083 37.0216 70.8523 39.3439 70.589 41.9126C70.3047 44.4789 69.9016 47.2897 69.3327 50.2108C68.7486 53.1294 68.0543 55.8761 67.3438 58.3475C66.6136 60.8128 65.8776 63.0063 65.1868 64.8168C64.8603 65.7303 64.5169 66.5354 64.2304 67.2493C63.9474 67.9645 63.6811 68.5707 63.4573 69.0616C63.2438 69.5298 63.0727 69.9055 62.9416 70.1932C62.8204 70.4507 62.7526 70.5831 62.7433 70.5782C62.7334 70.5733 62.7833 70.4316 62.886 70.1655C63.0037 69.8717 63.1574 69.4879 63.3488 69.0099C63.5564 68.5115 63.8058 67.8992 64.0738 67.1785C64.3447 66.4596 64.6735 65.6502 64.9861 64.7336C65.6497 62.9164 66.3619 60.7216 67.0753 58.2601C67.769 55.7917 68.4522 53.053 69.0346 50.1442C69.6018 47.2336 70.0124 44.4339 70.3105 41.8781C70.5884 39.3199 70.7664 37.0062 70.8465 35.059C70.9068 34.0864 70.912 33.2049 70.9358 32.4306C70.963 31.6562 70.9665 30.9891 70.9648 30.444C70.97 29.9247 70.9746 29.507 70.9781 29.1873C70.9839 28.9003 70.9926 28.7487 71.0031 28.7487Z" fill="#EBEBEB"/>
<path d="M70.2809 42.9389C70.2554 41.2652 69.662 39.6076 68.6337 38.3392C68.2822 37.9056 67.8002 37.4867 67.2672 37.5692C66.5578 37.6783 66.2342 38.5813 66.2098 39.3427C66.1687 40.6227 66.5805 41.9133 67.3461 42.9026C68.1117 43.8919 68.9126 44.506 70.1028 44.7111" fill="#EBEBEB"/>
<path d="M68.7149 52.1586C68.8036 50.1775 68.2045 47.1154 67.1147 45.5045C66.9424 45.2495 66.7516 44.9994 66.4987 44.8374C66.2458 44.6754 65.9181 44.6144 65.6531 44.753C65.2732 44.9514 65.1537 45.4602 65.1148 45.9074C64.8654 48.7582 66.2928 51.699 68.6232 53.138" fill="#EBEBEB"/>
<path d="M66.6884 60.0569C66.504 58.0839 65.8126 56.1669 64.7095 54.5665C64.4508 54.1914 64.1266 53.807 63.6927 53.7478C63.0338 53.6585 62.5107 54.3718 62.3663 55.0605C62.0693 56.478 62.7322 57.9175 63.5007 59.1181C64.3284 60.4117 66.0452 61.7965 66.0452 61.7965" fill="#EBEBEB"/>
<path d="M64.8539 65.6077C64.5209 64.0621 63.9885 62.5357 63.0651 61.2895C62.8645 61.0191 62.6383 60.7567 62.3454 60.6089C62.0525 60.4616 61.6784 60.4518 61.4237 60.6649C61.0137 61.008 61.1047 61.6881 61.2793 62.2111C61.8831 64.0172 62.8633 65.559 64.3423 66.6574" fill="#EBEBEB"/>
<path d="M65.67 63.3772C67.3404 62.2141 69.1117 61.215 70.9538 60.3951C71.2415 60.2676 71.5918 60.1499 71.8452 60.3427C72.0419 60.4918 72.0993 60.7875 72.0419 61.0364C71.9844 61.2852 71.8342 61.4977 71.6788 61.6936C70.1377 63.6427 67.5573 64.7077 65.1648 64.5636" fill="#EBEBEB"/>
<path d="M67.7145 56.0381C69.1645 55.0347 70.6145 54.0306 72.0645 53.0271C72.4786 52.7407 72.9049 52.4487 73.3886 52.3421C73.8723 52.2362 74.4338 52.3582 74.733 52.7752C75.0317 53.1916 74.994 53.799 74.7632 54.2616C74.5324 54.7248 74.1432 55.0716 73.7528 55.392C72.8243 56.1539 71.8191 56.8408 70.6968 57.2048C69.5745 57.5689 68.6065 57.7254 67.5509 57.1802" fill="#EBEBEB"/>
<path d="M69.7223 47.6772C70.9084 45.9456 72.5342 44.5577 74.3815 43.7003C74.6906 43.5567 75.0218 43.4255 75.3565 43.4668C76.024 43.5487 76.4654 44.3107 76.477 45.0247C76.4903 45.8273 76.0901 46.593 75.5333 47.1357C74.9765 47.6784 74.2753 48.0246 73.5642 48.2975C72.254 48.8001 70.8684 49.0817 69.4758 49.1272" fill="#EBEBEB"/>
<path d="M70.6486 39.9322C71.6544 37.6776 73.3932 36.1044 75.2991 34.6469C75.701 34.3395 76.2213 34.0451 76.6656 34.2773C76.9486 34.4251 77.1127 34.7615 77.1435 35.0947C77.1736 35.4286 77.0901 35.7619 76.9875 36.0785C76.0699 38.9022 73.4147 40.9862 70.6034 41.0884" fill="#EBEBEB"/>
<path d="M70.883 35.8974C71.354 34.7227 71.8273 33.5393 72.0825 32.2919C72.3377 31.0445 72.3655 29.7146 71.9537 28.5152C71.7768 27.9997 71.5106 27.5019 71.1011 27.1674C70.6922 26.8323 70.1215 26.6863 69.6436 26.8946C69.201 27.088 68.9017 27.5518 68.7753 28.0415C68.6489 28.5319 68.6715 29.0499 68.7132 29.5563C68.9139 31.9747 69.6047 34.8102 70.883 35.8974Z" fill="#EBEBEB"/>
<path d="M32.7097 70.5782V76.4019C32.7097 77.6683 33.676 78.6946 34.8685 78.6946H72.3852C73.5777 78.6946 74.544 77.6677 74.544 76.4019V70.5782H32.7097Z" fill="#EBEBEB"/>
<path d="M35.9624 78.6952L36.2739 80.5488L70.8912 83.1692L71.7681 78.6952H35.9624Z" fill="#E0E0E0"/>
<path d="M91.4584 66.427C91.4584 66.427 85.2397 71.4591 91.198 78.1076C91.2995 78.2209 91.4439 78.2856 91.5918 78.2843L145.926 77.948C145.926 77.948 150.566 72.4206 146.716 66.0518L91.4584 66.427Z" fill="#EBEBEB"/>
<path d="M133.917 71.679C133.917 71.7431 127.152 71.7954 118.807 71.7954C110.46 71.7954 103.696 71.7431 103.696 71.679C103.696 71.6149 110.46 71.5626 118.807 71.5626C127.152 71.5626 133.917 71.6149 133.917 71.679Z" fill="#E0E0E0"/>
<path d="M125.466 73.7666C125.466 73.8307 122.285 73.883 118.362 73.883C114.438 73.883 111.258 73.8307 111.258 73.7666C111.258 73.7025 114.438 73.6502 118.362 73.6502C122.285 73.6502 125.466 73.7019 125.466 73.7666Z" fill="#E0E0E0"/>
<path d="M139.473 77.7626C139.438 77.7527 139.593 77.0998 139.761 76.031C139.93 74.9629 140.087 73.4722 140.075 71.8207C140.058 70.1685 139.874 68.6809 139.686 67.6171C139.499 66.552 139.332 65.9021 139.368 65.8917C139.382 65.8873 139.438 66.045 139.525 66.3358C139.616 66.6253 139.724 67.0522 139.838 67.5844C140.067 68.6483 140.278 70.1488 140.294 71.8188C140.307 73.4882 140.123 74.9931 139.913 76.0612C139.809 76.5959 139.708 77.024 139.623 77.3154C139.54 77.608 139.488 77.7669 139.473 77.7626Z" fill="#E0E0E0"/>
<path d="M143.528 65.9791C143.541 65.9717 143.627 66.1208 143.77 66.3986C143.843 66.5366 143.928 66.7078 144.011 66.9154C144.096 67.1218 144.203 67.3528 144.288 67.6214C144.483 68.1499 144.661 68.801 144.806 69.5365C144.938 70.2739 145.031 71.0968 145.042 71.9648C145.045 72.8327 144.965 73.6576 144.843 74.3974C144.709 75.1353 144.541 75.7889 144.354 76.3211C144.273 76.5916 144.169 76.8244 144.088 77.032C144.009 77.2408 143.926 77.4133 143.854 77.5525C143.715 77.8328 143.632 77.9831 143.619 77.9763C143.581 77.9566 143.884 77.3351 144.208 76.2688C144.373 75.7372 144.523 75.0885 144.643 74.361C144.752 73.6311 144.825 72.821 144.822 71.9679C144.811 71.1153 144.727 70.3059 144.607 69.5784C144.475 68.8528 144.315 68.2072 144.142 67.6787C143.803 66.6161 143.491 65.9994 143.528 65.9791Z" fill="#E0E0E0"/>
<path d="M100.031 77.8396C100.019 77.8482 99.9293 77.7109 99.7785 77.454C99.7008 77.3265 99.6115 77.1675 99.5245 76.9729C99.4357 76.7795 99.3226 76.5645 99.2345 76.3095C99.0315 75.8111 98.8493 75.1914 98.7043 74.4892C98.5733 73.7845 98.488 72.9954 98.4938 72.165C98.5089 71.334 98.6139 70.548 98.7629 69.847C98.9248 69.1491 99.1231 68.5343 99.3389 68.0421C99.434 67.7902 99.5523 67.5777 99.6457 67.3873C99.7373 67.1951 99.8307 67.0387 99.9113 66.9136C100.069 66.6611 100.161 66.5261 100.174 66.5354C100.211 66.5594 99.8615 67.1175 99.4816 68.1074C99.2878 68.6002 99.1086 69.2088 98.9601 69.8951C98.825 70.585 98.7281 71.355 98.7131 72.1687C98.7078 72.9824 98.785 73.7549 98.9027 74.4479C99.0338 75.1384 99.1973 75.752 99.3789 76.2497C99.7338 77.2489 100.069 77.8162 100.031 77.8396Z" fill="#E0E0E0"/>
<path d="M94.1647 79.2472C94.1519 79.2558 94.0533 79.0999 93.8851 78.8098C93.7987 78.6663 93.6995 78.4864 93.6015 78.2677C93.5012 78.0503 93.3747 77.8082 93.2727 77.523C93.0418 76.9643 92.8278 76.2713 92.6503 75.4859C92.4873 74.6974 92.369 73.8153 92.3441 72.882C92.3296 71.9488 92.4108 71.0617 92.5413 70.2659C92.6857 69.4731 92.8701 68.7702 93.0778 68.2017C93.1677 67.9121 93.2837 67.6639 93.3747 67.4427C93.4635 67.2198 93.5557 67.0356 93.6357 66.8883C93.7912 66.5908 93.8834 66.4307 93.8962 66.4381C93.9356 66.4596 93.5876 67.1163 93.2234 68.2571C93.0372 68.8257 92.8707 69.5217 92.7396 70.3035C92.6225 71.0882 92.5488 71.9599 92.5627 72.8771C92.5871 73.7937 92.6973 74.661 92.8469 75.4397C93.0105 76.2146 93.2054 76.902 93.4153 77.4614C93.8283 78.5843 94.203 79.2237 94.1647 79.2472Z" fill="#E0E0E0"/>
<path d="M143.933 95.5219C143.933 95.9592 143.933 106.565 143.933 106.565H123.813V95.5219H143.933Z" fill="#EBEBEB"/>
<path d="M78.9542 101.146C78.9577 101.243 78.9618 101.341 78.9664 101.439C79.1294 104.78 81.8009 107.364 84.9514 107.364H144.871V106.565H130.647C127.776 106.565 125.448 104.093 125.448 101.043C125.448 97.9939 127.776 95.5219 130.647 95.5219H144.871V94.3484L84.934 94.5634C81.5503 94.5763 78.8307 97.5547 78.9542 101.146Z" fill="#E0E0E0"/>
<path d="M143.933 101.191C143.933 101.255 139.796 101.307 134.694 101.307C129.59 101.307 125.455 101.255 125.455 101.191C125.455 101.127 129.591 101.074 134.694 101.074C139.796 101.074 143.933 101.127 143.933 101.191Z" fill="#E0E0E0"/>
<path d="M143.642 103.68C143.642 103.744 139.727 103.796 134.9 103.796C130.071 103.796 126.157 103.744 126.157 103.68C126.157 103.615 130.07 103.563 134.9 103.563C139.727 103.562 143.642 103.615 143.642 103.68Z" fill="#E0E0E0"/>
<path d="M143.933 105.955C143.933 106.02 140.413 106.071 136.073 106.071C131.731 106.071 128.213 106.02 128.213 105.955C128.213 105.891 131.731 105.839 136.073 105.839C140.413 105.839 143.933 105.89 143.933 105.955Z" fill="#E0E0E0"/>
<path d="M143.933 98.9548C143.933 99.0195 139.88 99.0713 134.884 99.0713C129.885 99.0713 125.833 99.0189 125.833 98.9548C125.833 98.8908 129.885 98.8384 134.884 98.8384C139.881 98.8384 143.933 98.8908 143.933 98.9548Z" fill="#E0E0E0"/>
<path d="M143.642 96.7194C143.642 96.7835 140.035 96.8358 135.587 96.8358C131.137 96.8358 127.531 96.7835 127.531 96.7194C127.531 96.6553 131.137 96.603 135.587 96.603C140.035 96.603 143.642 96.6553 143.642 96.7194Z" fill="#E0E0E0"/>
<path d="M86.2141 94.7488C86.2471 94.7845 85.6288 95.2822 84.941 96.3565C84.2548 97.4124 83.5542 99.1255 83.5739 101.106C83.5983 103.086 84.3372 104.782 85.0465 105.82C85.7576 106.877 86.3875 107.358 86.355 107.395C86.3475 107.406 86.1868 107.294 85.9223 107.056C85.6573 106.82 85.2988 106.442 84.9212 105.917C84.1655 104.884 83.3796 103.152 83.3547 101.108C83.3344 99.0663 84.0814 97.3138 84.8139 96.2623C85.1799 95.7282 85.5297 95.3414 85.7895 95.0987C86.0482 94.8541 86.2059 94.7383 86.2141 94.7488Z" fill="#F5F5F5"/>
<path d="M84.1875 94.5128C84.2206 94.5486 83.6023 95.0463 82.9144 96.1206C82.2283 97.1764 81.5277 98.8895 81.5474 100.869C81.5717 102.85 82.3107 104.546 83.02 105.584C83.7311 106.64 84.361 107.122 84.3279 107.159C84.3204 107.169 84.1603 107.058 83.8958 106.82C83.6307 106.583 83.2723 106.206 82.8947 105.681C82.139 104.648 81.3531 102.915 81.3276 100.872C81.3073 98.8298 82.0543 97.0773 82.7868 96.0257C83.1528 95.4917 83.5026 95.1048 83.7624 94.8621C84.0222 94.6188 84.18 94.503 84.1875 94.5128Z" fill="#F5F5F5"/>
<path d="M124.902 94.7488C124.935 94.7845 124.317 95.2822 123.629 96.3565C122.943 97.4124 122.242 99.1255 122.262 101.106C122.286 103.086 123.024 104.782 123.734 105.82C124.445 106.877 125.075 107.358 125.043 107.395C125.035 107.406 124.875 107.294 124.61 107.056C124.345 106.82 123.987 106.442 123.609 105.917C122.853 104.884 122.067 103.152 122.042 101.108C122.022 99.0663 122.769 97.3138 123.502 96.2623C123.868 95.7282 124.217 95.3414 124.477 95.0987C124.736 94.8541 124.894 94.7383 124.902 94.7488Z" fill="#F5F5F5"/>
<path d="M122.876 94.5128C122.909 94.5486 122.291 95.0463 121.603 96.1206C120.917 97.1764 120.216 98.8895 120.236 100.869C120.26 102.85 120.998 104.546 121.708 105.584C122.419 106.64 123.049 107.122 123.016 107.159C123.009 107.169 122.849 107.058 122.584 106.82C122.319 106.583 121.96 106.206 121.582 105.681C120.827 104.648 120.041 102.915 120.016 100.872C119.996 98.8298 120.743 97.0773 121.475 96.0257C121.841 95.4917 122.191 95.1048 122.451 94.8621C122.71 94.6188 122.868 94.503 122.876 94.5128Z" fill="#F5F5F5"/>
<path d="M93.0331 102.698C93.014 101.201 92.9954 99.7051 92.9763 98.2083C92.9716 97.8171 92.9647 97.4155 92.8272 97.0514C92.6903 96.688 92.3916 96.3658 92.0245 96.3319C91.495 96.0831 90.6696 96.5518 90.2996 97.1999C89.9295 97.8479 89.8889 98.6425 89.8837 99.4002C89.8756 100.585 89.9301 101.769 90.0461 102.947C90.1012 103.507 90.1755 104.082 90.4394 104.571C90.7027 105.059 91.2015 105.446 91.7293 105.395C92.253 105.343 92.6741 104.876 92.8591 104.353C93.0447 103.83 93.0401 103.256 93.0331 102.698Z" fill="#F5F5F5"/>
<path d="M116.304 101.407C116.304 101.471 111.972 101.524 106.63 101.524C101.286 101.524 96.9551 101.471 96.9551 101.407C96.9551 101.342 101.286 101.291 106.63 101.291C111.972 101.29 116.304 101.342 116.304 101.407Z" fill="#F5F5F5"/>
<path d="M89.019 94.3071L88.9082 83.8401H94.2732L94.4582 94.3071H89.019Z" fill="#F5F5F5"/>
<path d="M93.9565 85.7022C93.9565 85.7669 92.84 85.8187 91.4636 85.8187C90.0867 85.8187 88.9702 85.7663 88.9702 85.7022C88.9702 85.6382 90.0861 85.5858 91.4636 85.5858C92.84 85.5858 93.9565 85.6382 93.9565 85.7022Z" fill="#E0E0E0"/>
<path d="M93.9565 87.318C93.9565 87.3827 92.84 87.4344 91.4636 87.4344C90.0867 87.4344 88.9702 87.3821 88.9702 87.318C88.9702 87.2539 90.0861 87.2016 91.4636 87.2016C92.84 87.2016 93.9565 87.2533 93.9565 87.318Z" fill="#E0E0E0"/>
<path d="M93.9565 88.9331C93.9565 88.9978 92.84 89.0496 91.4636 89.0496C90.0867 89.0496 88.9702 88.9972 88.9702 88.9331C88.9702 88.8691 90.0861 88.8167 91.4636 88.8167C92.84 88.8167 93.9565 88.8691 93.9565 88.9331Z" fill="#E0E0E0"/>
<path d="M93.9565 90.5489C93.9565 90.6136 92.84 90.6653 91.4636 90.6653C90.0867 90.6653 88.9702 90.613 88.9702 90.5489C88.9702 90.4849 90.0861 90.4325 91.4636 90.4325C92.84 90.4325 93.9565 90.4849 93.9565 90.5489Z" fill="#E0E0E0"/>
<path d="M93.9565 92.1647C93.9565 92.2293 92.84 92.2811 91.4636 92.2811C90.0867 92.2811 88.9702 92.2287 88.9702 92.1647C88.9702 92.1006 90.0861 92.0482 91.4636 92.0482C92.84 92.0482 93.9565 92.1 93.9565 92.1647Z" fill="#E0E0E0"/>
<path d="M88.6234 83.5628H148.083C148.817 87.0291 148.714 90.8433 148.083 94.8769H88.8769V94.1075H92.4949C93.4386 94.1075 94.2036 93.295 94.2036 92.2928V86.0318C94.2036 85.0295 93.4386 84.217 92.4949 84.217H88.6234V83.5628Z" fill="#EBEBEB"/>
<path d="M102.68 89.2264H103.672C103.71 89.2264 103.745 89.2356 103.779 89.2547C103.85 89.2984 103.886 89.3643 103.886 89.4531C103.886 89.4795 103.884 89.5017 103.878 89.5208C103.858 89.6101 103.836 89.6995 103.811 89.79C103.672 90.2717 103.465 90.669 103.19 90.9826C102.916 91.2924 102.634 91.447 102.344 91.447C102.305 91.447 102.265 91.4446 102.224 91.4384C101.954 91.3947 101.729 91.2222 101.549 90.9197C101.352 90.5816 101.253 90.159 101.253 89.6508C101.253 89.352 101.292 89.0508 101.371 88.7471C101.497 88.2562 101.693 87.849 101.96 87.5262C102.239 87.1899 102.537 87.0217 102.854 87.0217C102.987 87.0217 103.112 87.0519 103.23 87.1129C103.486 87.2465 103.679 87.5028 103.808 87.8816C103.825 87.9155 103.832 87.9506 103.832 87.9864C103.832 88.0258 103.823 88.064 103.803 88.0997C103.76 88.1748 103.699 88.2124 103.619 88.2124C103.598 88.2124 103.576 88.2087 103.553 88.2013C103.483 88.1767 103.438 88.1293 103.416 88.0597L103.406 88.0393C103.374 87.9463 103.334 87.8638 103.286 87.7899C103.156 87.589 102.998 87.4892 102.811 87.4892C102.703 87.4892 102.593 87.5317 102.484 87.6161C102.275 87.7751 102.095 88.0498 101.942 88.4428C101.785 88.8469 101.707 89.2424 101.707 89.6317C101.707 90.0056 101.764 90.3167 101.878 90.5655C102.005 90.8409 102.177 90.9783 102.396 90.9783C102.543 90.9764 102.703 90.8742 102.875 90.6709C103.087 90.4189 103.257 90.0925 103.384 89.6921C102.928 89.6921 102.69 89.689 102.673 89.6834C102.518 89.6569 102.438 89.5719 102.436 89.4284C102.439 89.4001 102.446 89.3748 102.457 89.352C102.496 89.2689 102.57 89.2264 102.68 89.2264Z" fill="#FAFAFA"/>
<path d="M106.057 87.1702C106.065 87.1905 106.074 87.2164 106.083 87.2466C106.125 87.4012 106.359 88.7059 106.783 91.16C106.79 91.1785 106.793 91.1976 106.793 91.2161C106.793 91.2555 106.784 91.2943 106.764 91.3319C106.722 91.4095 106.663 91.4477 106.587 91.4477C106.576 91.4477 106.565 91.4464 106.552 91.4452C106.468 91.4298 106.413 91.3781 106.388 91.2894L106.152 89.989H104.93L104.343 91.2943C104.338 91.3085 104.332 91.3232 104.324 91.3374C104.268 91.4113 104.207 91.4483 104.14 91.4483C104.098 91.4483 104.06 91.436 104.024 91.4113C103.959 91.3645 103.927 91.3004 103.927 91.221C103.927 91.1988 103.931 91.176 103.94 91.1532C103.977 91.0621 104.038 90.9191 104.122 90.7245C104.977 88.7422 105.488 87.5724 105.655 87.2157C105.703 87.1123 105.772 87.0593 105.861 87.0568C105.946 87.0587 106.012 87.0962 106.057 87.1702ZM105.79 88.0449L105.13 89.5214H106.062L105.79 88.0449Z" fill="#FAFAFA"/>
<path d="M109.373 91.4477H107.581C107.54 91.4477 107.501 91.4353 107.466 91.4107C107.414 91.3713 107.381 91.2912 107.364 91.1729V91.1705C107.364 91.0928 107.53 89.7943 107.859 87.2736C107.861 87.2447 107.864 87.217 107.87 87.1899C107.907 87.0975 107.971 87.0513 108.062 87.0513C108.098 87.0513 108.131 87.0599 108.161 87.0771C108.236 87.1184 108.273 87.1856 108.273 87.278C108.258 87.4498 108.217 87.8059 108.151 88.3461C107.947 90.0093 107.839 90.8877 107.831 90.9801H109.354C109.395 90.9801 109.433 90.9881 109.469 91.0029C109.56 91.0423 109.605 91.1132 109.605 91.2154C109.605 91.2401 109.601 91.2647 109.594 91.2894C109.564 91.3762 109.49 91.4286 109.373 91.4477Z" fill="#FAFAFA"/>
<path d="M111.823 87.1702C111.832 87.1905 111.84 87.2164 111.85 87.2466C111.892 87.4012 112.125 88.7059 112.55 91.16C112.557 91.1785 112.559 91.1976 112.559 91.2161C112.559 91.2555 112.55 91.2943 112.53 91.3319C112.488 91.4095 112.429 91.4477 112.353 91.4477C112.343 91.4477 112.331 91.4464 112.319 91.4452C112.234 91.4298 112.18 91.3781 112.155 91.2894L111.918 89.989H110.697L110.11 91.2943C110.105 91.3085 110.098 91.3232 110.09 91.3374C110.035 91.4113 109.973 91.4483 109.907 91.4483C109.865 91.4483 109.827 91.436 109.791 91.4113C109.726 91.3645 109.693 91.3004 109.693 91.221C109.693 91.1988 109.698 91.176 109.707 91.1532C109.744 91.0621 109.804 90.9191 109.889 90.7245C110.743 88.7422 111.254 87.5724 111.422 87.2157C111.47 87.1123 111.539 87.0593 111.628 87.0568C111.713 87.0587 111.778 87.0962 111.823 87.1702ZM111.557 88.0449L110.896 89.5214H111.829L111.557 88.0449Z" fill="#FAFAFA"/>
<path d="M114.678 89.4155C114.817 89.8276 114.926 90.1454 115.002 90.369C115.187 90.9111 115.279 91.1976 115.279 91.2277C115.279 91.269 115.268 91.3072 115.244 91.3429C115.201 91.4125 115.142 91.447 115.065 91.447C114.985 91.4452 114.926 91.3941 114.888 91.2943C114.874 91.2536 114.863 91.2216 114.854 91.1982C114.757 90.961 114.596 90.5144 114.375 89.8565L113.361 91.3281C113.305 91.4058 113.242 91.4458 113.171 91.4476C113.133 91.4476 113.096 91.4372 113.061 91.4169C112.993 91.3731 112.959 91.3103 112.959 91.2265C112.959 91.2074 112.96 91.192 112.962 91.1785C112.967 91.1446 113.003 91.083 113.069 90.9943C113.409 90.528 113.784 89.9723 114.195 89.328C114.152 89.2017 114.111 89.0816 114.072 88.9689C113.69 87.8835 113.5 87.3223 113.5 87.286C113.5 87.2447 113.509 87.2059 113.527 87.1695C113.566 87.0944 113.624 87.0562 113.7 87.0562C113.793 87.0586 113.86 87.1005 113.9 87.1819L114.498 88.8949L115.694 87.1664C115.745 87.0968 115.809 87.0605 115.884 87.0593C115.919 87.0593 115.952 87.0673 115.982 87.0845C116.051 87.1258 116.086 87.1936 116.086 87.2866C116.086 87.3186 116.078 87.3537 116.064 87.3913L114.678 89.4155Z" fill="#FAFAFA"/>
<path d="M119.113 87.071C119.147 87.071 119.18 87.079 119.212 87.0962C119.283 87.1375 119.322 87.2028 119.327 87.2915C119.033 89.7524 118.872 91.0817 118.841 91.2807C118.774 91.6996 118.646 92.0464 118.458 92.3199C118.171 92.7338 117.775 92.9402 117.268 92.9402C117.104 92.9402 116.914 92.8866 116.694 92.7788C116.389 92.6279 116.178 92.4314 116.062 92.1893C116.046 92.1554 116.038 92.1185 116.038 92.079C116.038 92.0396 116.048 92.0014 116.067 91.9657C116.11 91.8899 116.171 91.8524 116.251 91.8524C116.316 91.8542 116.37 91.885 116.414 91.946C116.679 92.3137 116.985 92.4992 117.332 92.501C117.607 92.4992 117.844 92.371 118.043 92.1172C118.269 91.8253 118.401 91.4267 118.438 90.9204C118.369 91.0349 118.281 91.1341 118.174 91.2179C117.981 91.3669 117.766 91.4415 117.532 91.4415C117.493 91.4415 117.452 91.439 117.412 91.4329C117.138 91.3916 116.911 91.2185 116.731 90.9142C116.532 90.5766 116.433 90.1534 116.433 89.6452C116.433 89.4142 116.443 89.1765 116.462 88.9313C116.496 88.5463 116.577 87.9993 116.705 87.2909C116.708 87.2681 116.715 87.2465 116.724 87.2256C116.761 87.1215 116.825 87.0697 116.916 87.0697C116.952 87.0697 116.986 87.0796 117.02 87.1005C117.091 87.1437 117.126 87.204 117.126 87.2816C117.126 87.3987 117.093 87.6882 117.028 88.1502C116.934 88.8296 116.887 89.2713 116.887 89.4771C116.887 89.899 116.94 90.2434 117.047 90.5095C117.169 90.8187 117.346 90.9733 117.578 90.9733C117.601 90.9733 117.625 90.9702 117.65 90.9647C117.824 90.9271 118.003 90.7756 118.185 90.5095C118.395 90.2039 118.543 89.8541 118.628 89.4598L118.9 87.2896C118.904 87.2564 118.912 87.2237 118.927 87.1936C118.966 87.1129 119.028 87.071 119.113 87.071Z" fill="#FAFAFA"/>
<path d="M145.85 95.0241C145.79 95.0241 145.741 92.4252 145.741 89.2202C145.741 86.0139 145.79 83.4156 145.85 83.4156C145.911 83.4156 145.96 86.0139 145.96 89.2202C145.96 92.4252 145.911 95.0241 145.85 95.0241Z" fill="#F5F5F5"/>
<path d="M97.1941 95.0241C97.1332 95.0241 97.0845 92.4252 97.0845 89.2202C97.0845 86.0139 97.1338 83.4156 97.1941 83.4156C97.2544 83.4156 97.3037 86.0139 97.3037 89.2202C97.3037 92.4252 97.2544 95.0241 97.1941 95.0241Z" fill="#E0E0E0"/>
<path d="M146.894 95.0241C146.833 95.0241 146.784 92.4252 146.784 89.2202C146.784 86.0139 146.833 83.4156 146.894 83.4156C146.954 83.4156 147.003 86.0139 147.003 89.2202C147.003 92.4252 146.954 95.0241 146.894 95.0241Z" fill="#F5F5F5"/>
<path d="M96.2191 95.0241C96.1582 95.0241 96.1095 92.4252 96.1095 89.2202C96.1095 86.0139 96.1588 83.4156 96.2191 83.4156C96.2794 83.4156 96.3287 86.0139 96.3287 89.2202C96.3287 92.4252 96.2794 95.0241 96.2191 95.0241Z" fill="#E0E0E0"/>
<path d="M131.433 85.3277L131.423 85.3074C133.047 86.6983 135.254 88.5894 137.708 90.6924L137.764 90.7399L137.695 90.7596C137.429 90.8335 137.145 90.913 136.859 90.9931C134.95 91.5253 133.143 92.0286 131.553 92.4721L131.542 92.4752L131.532 92.4708C129.56 91.5826 127.896 90.8335 126.722 90.305C126.141 90.0401 125.68 89.8307 125.362 89.6859C125.207 89.6144 125.087 89.5584 125.002 89.5196C124.963 89.5011 124.934 89.4869 124.911 89.4759C124.89 89.4654 124.88 89.4592 124.88 89.4592C124.88 89.4592 124.892 89.4623 124.913 89.4709C124.937 89.4808 124.967 89.4937 125.007 89.5097C125.092 89.5467 125.214 89.599 125.37 89.6662C125.69 89.8066 126.153 90.0105 126.738 90.2674C127.914 90.7898 129.581 91.5302 131.557 92.408L131.536 92.4062C133.126 91.9608 134.932 91.4544 136.841 90.9198C137.127 90.8397 137.411 90.7602 137.677 90.6863L137.664 90.7528C135.215 88.6436 133.013 86.7464 131.392 85.3511L131.383 85.3431L131.382 85.3308" fill="#E0E0E0"/>
<path d="M137.14 89.8541L137.482 90.1966L137.942 90.0912L137.741 90.5434L137.978 90.9752L137.511 90.9117L137.198 91.2844L137.11 90.7935L136.679 90.5914L137.092 90.3512L137.14 89.8541Z" fill="#E0E0E0"/>
<path d="M131.111 91.9768L131.346 92.1838L131.638 92.0963L131.525 92.3963L131.694 92.6655L131.39 92.6439L131.202 92.8977L131.127 92.5842L130.842 92.4721L131.099 92.2996L131.111 91.9768Z" fill="#E0E0E0"/>
<path d="M124.453 89.0748L124.826 89.0994L125.057 88.7878L125.15 89.1721L125.501 89.3083L125.185 89.5214L125.171 89.9181L124.883 89.6649L124.524 89.7733L124.662 89.4044L124.453 89.0748Z" fill="#E0E0E0"/>
<path d="M139.957 85.4127L140.33 85.4373L140.561 85.125L140.654 85.5094L141.005 85.6462L140.689 85.8587L140.675 86.2554L140.387 86.0028L140.028 86.1112L140.166 85.7423L139.957 85.4127Z" fill="#E0E0E0"/>
<path d="M131.128 85.1521L131.366 85.1681L131.513 84.9692L131.573 85.2144L131.797 85.3012L131.596 85.4373L131.587 85.6905L131.403 85.5291L131.173 85.5981L131.261 85.3628L131.128 85.1521Z" fill="#E0E0E0"/>
<path d="M140.481 85.6905C140.48 85.7164 138.447 85.6449 135.941 85.531C133.434 85.417 131.403 85.3037 131.404 85.2778C131.405 85.2519 133.438 85.3234 135.945 85.4373C138.451 85.5513 140.482 85.6646 140.481 85.6905Z" fill="#E0E0E0"/>
<path d="M142.764 83.4643H82.4598C81.6699 81.5609 81.4761 79.7529 82.4598 78.1328H142.764C143.555 80.0732 143.489 81.8368 142.764 83.4643Z" fill="#E0E0E0"/>
<path d="M127.618 79.6568H94.9473V81.5966H127.618V79.6568Z" fill="#EBEBEB"/>
<path d="M84.7746 83.4932C84.7567 83.5099 84.5403 83.29 84.2985 82.8489C84.056 82.4109 83.8142 81.737 83.748 80.9566C83.6848 80.1761 83.8124 79.4677 83.9789 78.9909C84.1448 78.5116 84.3211 78.2548 84.342 78.2677C84.3744 78.2856 84.2497 78.5659 84.1274 79.0402C84.0032 79.5133 83.907 80.1902 83.9667 80.9356C84.0299 81.6804 84.2364 82.329 84.4365 82.7719C84.6343 83.2167 84.8036 83.4698 84.7746 83.4932Z" fill="#E0E0E0"/>
<path d="M86.0796 83.4932C86.0616 83.5099 85.8453 83.29 85.6034 82.8489C85.361 82.4109 85.1191 81.737 85.053 80.9566C84.9898 80.1761 85.1174 79.4677 85.2838 78.9909C85.4497 78.5116 85.626 78.2548 85.6469 78.2677C85.6794 78.2856 85.5541 78.5659 85.4317 79.0402C85.3082 79.5133 85.2113 80.1902 85.2711 80.9356C85.3343 81.6804 85.5408 82.329 85.7409 82.7719C85.9392 83.2167 86.1086 83.4698 86.0796 83.4932Z" fill="#E0E0E0"/>
<path d="M140.325 83.3688C140.258 83.3436 140.751 82.2335 140.749 80.7625C140.767 79.2909 140.286 78.1747 140.353 78.1507C140.393 78.1131 140.985 79.2299 140.968 80.7637C140.968 82.297 140.364 83.407 140.325 83.3688Z" fill="#F5F5F5"/>
<path d="M139.202 83.3559C139.137 83.3399 139.39 82.2144 139.383 80.8032C139.387 79.3913 139.13 78.2671 139.196 78.2505C139.246 78.2295 139.606 79.3537 139.603 80.8026C139.609 82.2508 139.253 83.3768 139.202 83.3559Z" fill="#F5F5F5"/>
<path d="M77.7833 223.239C77.8338 223.324 76.7805 224.09 75.1443 225.411C73.507 226.73 71.3105 228.64 69.0752 230.969C66.8434 233.303 65.0065 235.603 63.7369 237.318C62.465 239.033 61.7255 240.138 61.6466 240.083C61.5839 240.04 62.197 238.843 63.3906 237.042C64.5814 235.242 66.3887 232.866 68.6466 230.505C70.9074 228.149 73.1764 226.271 74.8909 225.038C76.6059 223.802 77.7445 223.172 77.7833 223.239Z" fill="#263238"/>
<path d="M75.6229 213.83C75.7876 213.873 75.225 216.916 74.3678 220.627C73.51 224.34 72.6829 227.306 72.5211 227.254C72.3592 227.202 72.9212 224.159 73.7767 220.457C74.6317 216.755 75.4588 213.788 75.6229 213.83Z" fill="#263238"/>
<path d="M74.6838 213.318C74.2558 213.52 74.1328 214.629 74.4866 215.163C74.8398 215.697 75.6077 215.788 76.1437 215.468C76.7759 215.089 77.0827 214.138 76.6952 213.486C76.3078 212.835 75.149 212.694 74.6345 213.352" fill="#455A64"/>
<path d="M79.1817 217.595C79.2519 217.759 78.2236 218.416 76.8849 219.064C75.5457 219.712 74.4043 220.105 74.3341 219.942C74.2639 219.778 75.2922 219.12 76.6315 218.473C77.9689 217.824 79.1115 217.432 79.1817 217.595Z" fill="#263238"/>
<path d="M79.0779 216.532C78.7224 216.819 78.3831 217.173 78.2642 217.63C78.1453 218.087 78.3268 218.659 78.7485 218.814C79.0205 218.914 79.3337 218.82 79.5576 218.628C79.7814 218.435 79.927 218.158 80.0256 217.87C80.1318 217.559 80.1874 217.21 80.0726 216.903C79.9572 216.597 79.6248 216.367 79.3308 216.475" fill="#455A64"/>
<path d="M79.0495 222.006C78.4039 221.982 77.8042 222.615 77.8222 223.301C77.8402 223.987 78.4712 224.583 79.115 224.523C79.7588 224.464 80.2831 223.762 80.1915 223.083C80.1004 222.403 79.4131 221.885 78.7786 222.016" fill="#455A64"/>
<path d="M51.6955 185.047C51.7379 185.048 51.7895 185.831 51.8463 187.249C51.8927 188.774 51.9548 190.799 52.0296 193.252C52.1578 198.319 52.2923 205.319 52.4031 213.05C52.5139 220.784 52.58 227.785 52.5974 232.854C52.5928 235.307 52.5887 237.332 52.5864 238.857C52.5702 240.274 52.5412 241.059 52.4988 241.059C52.4565 241.06 52.4049 240.277 52.348 238.861C52.3016 237.337 52.2396 235.313 52.1647 232.86C52.0366 227.793 51.902 220.79 51.7912 213.053C51.6804 205.32 51.6143 198.318 51.5969 193.249C51.6016 190.796 51.6056 188.771 51.6085 187.247C51.6242 185.83 51.6532 185.047 51.6955 185.047Z" fill="#263238"/>
<path d="M60.9819 180.822C61.3832 186.2 57.6034 190.906 52.5388 191.333C47.4748 191.759 43.0436 187.744 42.6423 182.366C42.2409 176.987 46.0208 172.281 51.0853 171.855C56.1493 171.428 60.5799 175.444 60.9819 180.822Z" fill="#E8505B"/>
<g opacity="0.3">
<path d="M51.4339 191.389C51.34 191.375 51.4612 190.296 51.5128 188.562C51.554 186.843 51.5041 184.4 50.5715 181.988C49.6307 179.59 47.8634 177.946 46.4175 177.262C44.9565 176.546 43.898 176.645 43.9049 176.519C43.9026 176.481 44.1584 176.419 44.6299 176.417C45.1009 176.411 45.7905 176.518 46.5869 176.838C48.1755 177.457 50.1283 179.164 51.137 181.738C52.1259 184.304 52.0969 186.85 51.9449 188.589C51.7802 190.35 51.507 191.402 51.4339 191.389Z" fill="black"/>
</g>
<g opacity="0.3">
<path d="M60.012 177.776C60.0358 177.974 57.4334 177.783 54.9086 179.531C52.3717 181.261 51.4692 183.86 51.3091 183.756C51.239 183.731 51.355 183.059 51.8451 182.093C52.3265 181.134 53.2376 179.903 54.5757 178.985C55.9126 178.065 57.3429 177.687 58.3643 177.614C59.3943 177.534 60.0196 177.698 60.012 177.776Z" fill="black"/>
</g>
<g opacity="0.3">
<path d="M55.8982 178.554C55.7973 178.578 55.6796 177.909 55.1094 177.077C54.5648 176.257 53.4535 175.283 52.0157 175.146C50.5756 175.028 49.3274 175.793 48.6627 176.506C47.9702 177.226 47.7498 177.864 47.6541 177.823C47.5909 177.812 47.6645 177.08 48.3437 176.194C48.9893 175.328 50.3691 174.362 52.0667 174.497C53.7615 174.663 54.9714 175.859 55.4725 176.827C56.0038 177.821 55.962 178.555 55.8982 178.554Z" fill="black"/>
</g>
<g opacity="0.3">
<path d="M53.3629 180.427C53.1837 180.445 52.9883 179.102 52.2128 177.704C51.4594 176.292 50.4618 175.442 50.5656 175.287C50.6352 175.134 51.9025 175.818 52.7429 177.379C53.5967 178.931 53.5219 180.439 53.3629 180.427Z" fill="black"/>
</g>
<g opacity="0.3">
<path d="M52.464 177.519C52.5081 177.712 51.7477 177.967 51.1184 178.619C50.4931 179.286 50.0529 180.027 49.8899 179.926C49.7618 179.858 49.9323 178.979 50.6944 178.15C51.5163 177.329 52.4588 177.362 52.464 177.519Z" fill="black"/>
</g>
<path d="M32.1031 215.035C32.2643 214.98 34.7943 222.892 37.7534 232.703C40.7137 242.518 42.9821 250.517 42.8209 250.572C42.6596 250.626 40.1303 242.717 37.1699 232.902C34.2108 223.09 31.9418 215.09 32.1031 215.035Z" fill="#263238"/>
<path d="M37.9906 234.556C37.888 234.673 35.3041 232.505 32.0723 229.866C28.8469 227.218 26.3152 224.945 26.4272 224.796C26.5275 224.664 29.2181 226.7 32.4487 229.353C35.6851 231.995 38.1176 234.409 37.9906 234.556Z" fill="#263238"/>
<path d="M24.9916 223.986C24.494 224.469 24.6749 225.548 25.2358 226.145C25.7967 226.74 27.1051 226.454 27.5285 225.741C27.9514 225.029 27.6602 223.969 26.9625 223.569C26.2647 223.168 25.3042 223.456 24.8675 224.159" fill="#455A64"/>
<path d="M37.9924 211.175C38.1786 211.215 37.6235 214.033 36.5279 217.336C35.4369 220.636 34.7595 223.354 34.604 223.328C34.4231 223.299 34.85 220.447 35.9467 217.13C37.0429 213.824 37.8451 211.146 37.9924 211.175Z" fill="#263238"/>
<path d="M37.7029 208.739C37.091 209.205 37.0638 209.486 36.8294 210.245C36.5951 211.005 36.9304 212.01 37.6675 212.173C38.3566 212.325 38.9952 211.695 39.2857 211.014C39.552 210.392 39.6291 209.619 39.2701 209.052C38.9111 208.485 38.0184 208.318 37.6258 208.859" fill="#455A64"/>
<path d="M27.1632 232.123C27.1023 231.955 28.1892 231.311 29.5905 230.684C30.9929 230.057 32.186 229.681 32.2562 229.845C32.3264 230.008 31.2394 230.653 29.8283 231.284C28.4177 231.914 27.2241 232.29 27.1632 232.123Z" fill="#263238"/>
<path d="M24.9662 231.034C24.5439 231.267 24.3693 232.347 24.3925 232.8C24.4157 233.253 24.6843 233.668 25.0445 233.912C25.7103 234.364 26.6824 234.203 27.1876 233.558C27.6927 232.913 27.6643 231.869 27.1249 231.256C26.5849 230.643 25.6059 230.542 24.9662 231.034Z" fill="#455A64"/>
<path d="M29.3875 213.204C29.1741 214.203 29.6683 215.323 30.5278 215.788C31.3874 216.253 32.5306 216.018 33.1657 215.248C33.4644 214.885 33.6552 214.399 33.5902 213.923C33.4725 213.064 32.4308 212.06 31.6159 211.995C30.4414 211.903 29.7495 212.553 29.3875 213.204Z" fill="#455A64"/>
<path d="M60.9058 222.93C60.9847 222.966 60.6837 223.944 60.1767 225.516C59.5759 227.332 58.8973 229.381 58.1485 231.641C57.3817 233.896 56.6869 235.939 56.0715 237.749C55.5275 239.307 55.1783 240.267 55.0959 240.241C54.9208 240.187 55.9543 236.206 57.5714 231.423C59.1675 226.634 60.7382 222.855 60.9058 222.93Z" fill="#263238"/>
<path d="M70.6718 218.446C69.7681 222.963 65.5881 225.847 61.3349 224.887C57.0818 223.927 54.3668 219.488 55.2699 214.97C56.1735 210.453 60.3536 207.57 64.6067 208.53C68.8599 209.489 71.5754 213.929 70.6718 218.446Z" fill="#E8505B"/>
<g opacity="0.3">
<path d="M60.415 224.648C60.3303 224.606 60.6667 223.747 61.0983 222.337C61.5182 220.936 62.0297 218.925 61.8186 216.716C61.5976 214.519 60.5356 212.721 59.5177 211.785C58.4946 210.818 57.609 210.614 57.6467 210.5C57.6414 210.441 58.6072 210.481 59.7933 211.43C60.966 212.347 62.1887 214.26 62.4276 216.647C62.6515 219.021 62.0367 221.107 61.5054 222.494C60.959 223.894 60.4829 224.682 60.415 224.648Z" fill="black"/>
</g>
<g opacity="0.3">
<path d="M70.5744 215.696C70.5379 215.887 68.451 215.084 65.997 215.861C63.5367 216.618 62.1911 218.492 62.0629 218.352C62.0014 218.306 62.2421 217.776 62.8627 217.102C63.4752 216.431 64.5082 215.648 65.8242 215.238C67.1396 214.827 68.4075 214.892 69.2642 215.105C70.1301 215.315 70.6028 215.622 70.5744 215.696Z" fill="black"/>
</g>
<g opacity="0.3">
<path d="M67.0207 215.27C66.9204 215.262 66.965 214.684 66.682 213.864C66.4175 213.06 65.7314 211.99 64.6004 211.513C63.4636 211.051 62.2769 211.345 61.5693 211.747C60.8385 212.147 60.5027 212.604 60.4238 212.539C60.3646 212.507 60.5839 211.916 61.3466 211.353C62.0762 210.798 63.4433 210.351 64.8225 210.908C66.1925 211.489 66.9134 212.801 67.0973 213.734C67.2991 214.697 67.0845 215.29 67.0207 215.27Z" fill="black"/>
</g>
<g opacity="0.3">
<path d="M64.511 216.152C64.3364 216.113 64.4617 214.967 64.1491 213.631C63.8573 212.29 63.2553 211.329 63.3945 211.21C63.5041 211.085 64.4095 211.969 64.7441 213.479C65.091 214.986 64.6624 216.21 64.511 216.152Z" fill="black"/>
</g>
<g opacity="0.3">
<path d="M64.4403 213.533C64.4287 213.728 63.7536 213.766 63.1046 214.13C62.4509 214.508 61.9046 214.986 61.777 214.843C61.6702 214.736 61.9956 214.044 62.8239 213.552C63.702 213.083 64.4751 213.377 64.4403 213.533Z" fill="black"/>
</g>
<path d="M42.7797 205.394C42.8221 205.389 42.9282 205.884 43.0848 206.783C43.2495 207.821 43.4513 209.094 43.6891 210.594C44.1729 213.814 44.7987 218.265 45.4523 223.187C46.106 228.11 46.664 232.57 47.0381 235.804C47.1999 237.314 47.3374 238.595 47.4487 239.639C47.5322 240.547 47.5589 241.053 47.5172 241.059C47.4754 241.066 47.3693 240.573 47.2132 239.676C47.0491 238.64 46.8473 237.368 46.6095 235.868C46.1257 232.648 45.4993 228.192 44.8445 223.264C44.1903 218.338 43.6323 213.874 43.2588 210.64C43.097 209.131 42.9595 207.851 42.8482 206.807C42.7635 205.9 42.7374 205.398 42.7797 205.394Z" fill="#263238"/>
<path d="M49.4706 196.608C50.6434 201.054 48.2004 205.669 44.014 206.915C39.8275 208.161 35.4822 205.566 34.3088 201.12C33.1361 196.673 35.579 192.058 39.7655 190.812C43.9525 189.567 48.2979 192.162 49.4706 196.608Z" fill="#E8505B"/>
<g opacity="0.3">
<path d="M43.0952 207.157C43.0018 207.161 42.9247 206.234 42.6909 204.773C42.4514 203.325 42.0251 201.291 40.8732 199.439C39.7173 197.601 37.9918 196.532 36.6804 196.204C35.3516 195.852 34.4781 196.107 34.4613 195.988C34.4312 195.939 35.3041 195.498 36.7691 195.754C38.2087 195.988 40.1279 197.081 41.3825 199.078C42.6179 201.069 42.985 203.221 43.1196 204.712C43.2477 206.221 43.17 207.154 43.0952 207.157Z" fill="black"/>
</g>
<g opacity="0.3">
<path d="M48.1836 194.22C48.2347 194.408 46.0359 194.725 44.2013 196.622C42.3523 198.505 41.9794 200.828 41.8048 200.768C41.73 200.757 41.712 200.169 41.9672 199.266C42.216 198.37 42.789 197.167 43.7762 196.155C44.7616 195.142 45.9135 194.575 46.7655 194.341C47.6228 194.101 48.1761 194.14 48.1836 194.22Z" fill="black"/>
</g>
<g opacity="0.3">
<path d="M44.8492 195.595C44.757 195.637 44.5435 195.103 43.9345 194.516C43.3487 193.934 42.274 193.325 41.0635 193.46C39.8542 193.611 38.932 194.456 38.4814 195.161C38.0087 195.875 37.9112 196.445 37.8126 196.426C37.7459 196.428 37.6827 195.796 38.1119 194.921C38.5162 194.07 39.5312 193 40.9968 192.814C42.4642 192.653 43.6759 193.46 44.246 194.196C44.8457 194.949 44.9142 195.581 44.8492 195.595Z" fill="black"/>
</g>
<g opacity="0.3">
<path d="M43.0112 197.612C42.8395 197.664 42.4497 196.587 41.5896 195.558C40.7451 194.514 39.7922 193.959 39.8635 193.785C39.9064 193.62 41.0943 193.958 42.0507 195.13C43.0158 196.293 43.1707 197.589 43.0112 197.612Z" fill="black"/>
</g>
<g opacity="0.3">
<path d="M41.8047 195.327C41.8796 195.505 41.2978 195.871 40.882 196.515C40.4678 197.171 40.1929 197.864 40.0172 197.8C39.8762 197.758 39.8617 196.985 40.3808 196.141C40.9539 195.292 41.7676 195.172 41.8047 195.327Z" fill="black"/>
</g>
<path d="M43.9055 294.332L36.7559 239.578H67.5144L61.2353 294.332H43.9055Z" fill="#263238"/>
<path d="M65.2953 260.991C65.2953 261.142 59.5318 261.265 52.4239 261.265C45.3137 261.265 39.5514 261.142 39.5514 260.991C39.5514 260.839 45.3137 260.716 52.4239 260.716C59.5318 260.716 65.2953 260.839 65.2953 260.991Z" fill="#FAFAFA"/>
<path d="M64.655 264.512C64.655 264.664 59.138 264.786 52.3341 264.786C45.5278 264.786 40.012 264.664 40.012 264.512C40.012 264.361 45.5278 264.238 52.3341 264.238C59.138 264.238 64.655 264.361 64.655 264.512Z" fill="#FAFAFA"/>
<path d="M64.2687 267.881C64.2687 268.032 58.9367 268.155 52.3607 268.155C45.7823 268.155 40.4515 268.032 40.4515 267.881C40.4515 267.729 45.7823 267.606 52.3607 267.606C58.9367 267.606 64.2687 267.729 64.2687 267.881Z" fill="#FAFAFA"/>
<path d="M63.8488 271.54C63.8488 271.691 58.7176 271.814 52.3898 271.814C46.0591 271.814 40.929 271.691 40.929 271.54C40.929 271.388 46.0591 271.266 52.3898 271.266C58.7176 271.266 63.8488 271.388 63.8488 271.54Z" fill="#FAFAFA"/>
<path d="M63.4654 274.884C63.4654 275.035 58.569 275.158 52.5307 275.158C46.49 275.158 41.5953 275.035 41.5953 274.884C41.5953 274.732 46.4905 274.61 52.5307 274.61C58.569 274.61 63.4654 274.732 63.4654 274.884Z" fill="#FAFAFA"/>
<path d="M62.8529 278.227C62.8529 278.379 58.1404 278.502 52.3282 278.502C46.5143 278.502 41.8024 278.379 41.8024 278.227C41.8024 278.077 46.5143 277.953 52.3282 277.953C58.1404 277.954 62.8529 278.077 62.8529 278.227Z" fill="#FAFAFA"/>
<path d="M62.6981 281.572C62.6981 281.724 58.1178 281.847 52.4692 281.847C46.8182 281.847 42.2391 281.724 42.2391 281.572C42.2391 281.421 46.8188 281.298 52.4692 281.298C58.1184 281.298 62.6981 281.421 62.6981 281.572Z" fill="#FAFAFA"/>
<path d="M62.3147 284.916C62.3147 285.068 57.9183 285.19 52.4959 285.19C47.0717 285.19 42.6759 285.068 42.6759 284.916C42.6759 284.764 47.0717 284.642 52.4959 284.642C57.9183 284.642 62.3147 284.764 62.3147 284.916Z" fill="#FAFAFA"/>
<path d="M131.896 55.9821C130.977 57.5757 128.788 57.8941 127.191 57.1087C125.594 56.3239 124.496 54.7248 123.629 53.0986C122.762 51.4723 122.04 49.7315 120.872 48.3344C118.894 45.9696 115.629 44.8626 112.762 45.7158C109.894 46.5683 107.613 49.4087 107.405 52.5639C107.155 56.3677 109.787 59.8801 113.024 61.5279C116.262 63.1757 119.988 63.3082 123.575 63.1548" fill="#263238"/>
<path d="M175.421 58.6327C178.909 56.8623 183.338 59.0263 185.324 62.5486C187.311 66.0703 187.311 70.4882 186.542 74.512C185.814 78.3213 184.634 82.8612 187.189 85.6449C189.191 87.8268 192.854 87.9518 194.273 90.6C196.31 94.4032 191.737 98.855 192.365 103.18C192.761 105.913 195.145 107.812 197.53 108.92C199.916 110.027 202.542 110.687 204.585 112.401C206.628 114.114 207.858 117.418 206.354 119.674C201.912 121.158 197.471 122.641 193.029 124.125C192.125 122.465 191.221 120.805 190.317 119.145C191.253 121.247 190.832 123.815 189.713 125.814C188.595 127.813 186.866 129.337 185.098 130.709C178.199 136.063 169.83 139.783 161.298 139.281" fill="#263238"/>
<path d="M117.43 66.0044C117.328 62.2246 120.619 59.3042 123.932 57.9194C127.245 56.5352 130.928 56.0129 133.881 53.9018C136.496 52.0323 138.254 49.1167 140.467 46.7334C145.898 40.887 154.377 38.4624 161.837 40.624C169.297 42.7855 175.442 49.4469 177.325 57.4124C178.597 62.7957 177.728 69.1595 173.733 72.7367C169.096 76.8879 162.221 75.9663 156.28 74.6746C150.338 73.3835 143.614 72.1096 138.653 75.8148C135.662 78.0497 133.947 81.6847 132.118 85.0493C130.29 88.4132 127.995 91.8481 124.536 93.1133C121.078 94.378 116.382 92.1942 116.247 88.3122" fill="#263238"/>
<path d="M117.669 68.0791C118.061 71.2471 115.902 74.0838 113.754 76.3205C111.605 78.5572 109.178 80.9294 108.798 84.0994C108.355 87.8021 110.9 91.4489 110.162 95.0974C109.693 97.4142 107.997 99.1982 106.968 101.301C105.524 104.252 105.45 107.823 106.335 111.014C107.221 114.205 108.632 121.33 110.72 123.809C116.495 130.665 125.69 136.583 134.131 138.642C142.573 140.702 151.342 140.714 159.987 140.15C167.065 139.687 175.204 140.033 181.102 129.691C184.156 124.336 185.67 117.214 187.293 111.194C188.691 106.011 189.9 100.46 188.447 95.2946C187.6 92.2848 185.895 89.6089 185.06 86.5954C184.017 82.8304 184.397 78.8042 183.978 74.905C183.07 66.4639 178.137 58.6228 171.142 54.5C164.148 50.3777 155.274 50.0802 148.049 53.7269" fill="#263238"/>
<path d="M180.591 81.0687C179.928 70.2819 173.171 57.0613 163.051 58.2218L131.465 66.7799C128.391 67.1323 126.082 69.9246 126.149 73.2079L128.203 146.913C128.501 157.591 136.851 166.016 146.907 165.784C156.852 165.555 164.806 156.933 164.824 146.368C164.833 141.116 164.836 134.927 164.838 134.953C164.838 134.953 177.811 132.634 180.462 114.645C181.78 105.699 181.327 93.0529 180.591 81.0687Z" fill="#FFBE9D"/>
<path d="M174.954 94.9817C174.998 96.1995 174.062 97.2424 172.865 97.3138C171.671 97.3847 170.666 96.4582 170.622 95.2398C170.579 94.0219 171.515 92.9778 172.709 92.907C173.906 92.8349 174.911 93.7638 174.954 94.9817Z" fill="#263238"/>
<path d="M177.612 88.704C177.343 89.0052 175.695 87.7166 173.359 87.7283C171.024 87.7049 169.312 88.9855 169.058 88.6824C168.933 88.5482 169.207 88.0048 169.952 87.4258C170.685 86.8492 171.938 86.2868 173.393 86.2899C174.849 86.2948 176.075 86.8616 176.779 87.4418C177.499 88.0252 177.744 88.5691 177.612 88.704Z" fill="#263238"/>
<path d="M152.535 94.9817C152.578 96.1995 151.642 97.2424 150.446 97.3132C149.251 97.3841 148.246 96.457 148.203 95.2391C148.16 94.0213 149.095 92.9772 150.29 92.9057C151.487 92.8349 152.492 93.7638 152.535 94.9817Z" fill="#263238"/>
<path d="M154.644 89.2208C154.374 89.5221 152.725 88.2334 150.39 88.2451C148.056 88.2211 146.343 89.5017 146.089 89.1986C145.965 89.0644 146.235 88.521 146.984 87.942C147.717 87.3648 148.969 86.803 150.425 86.8055C151.88 86.811 153.106 87.3771 153.812 87.958C154.529 88.5426 154.775 89.0859 154.644 89.2208Z" fill="#263238"/>
<path d="M163.162 107.605C163.151 107.464 164.603 107.194 166.956 106.869C167.552 106.802 168.117 106.675 168.216 106.243C168.356 105.784 168.105 105.102 167.814 104.365C167.25 102.833 166.659 101.227 166.039 99.5437C163.575 92.679 161.789 87.0334 162.05 86.9311C162.311 86.8283 164.522 92.3088 166.986 99.1735C167.579 100.866 168.147 102.48 168.687 104.024C168.914 104.743 169.304 105.56 169.002 106.51C168.841 106.984 168.405 107.329 168.022 107.439C167.64 107.563 167.304 107.571 167.009 107.591C164.641 107.732 163.171 107.746 163.162 107.605Z" fill="#263238"/>
<path d="M142.38 128.554C142.38 128.554 147.89 140.906 164.833 139.183L164.838 134.953C164.838 134.953 153.68 135.732 142.38 128.554Z" fill="#EB996E"/>
<path d="M162.187 113.589C161.344 112.411 159.871 111.766 158.409 111.937C157.395 112.055 156.372 112.577 155.758 113.455C155.144 114.333 155.017 115.579 155.579 116.414C156.211 117.354 157.529 117.569 158.643 117.229C159.758 116.89 160.716 116.108 161.626 115.329C161.877 115.113 162.134 114.888 162.292 114.593C162.449 114.299 162.481 113.913 162.286 113.67" fill="#E8505B"/>
<path d="M156.289 109.338C156.669 109.314 156.679 112.008 158.854 113.914C161.025 115.828 163.729 115.518 163.749 115.895C163.785 116.064 163.148 116.42 162.007 116.456C160.888 116.5 159.252 116.122 157.922 114.955C156.595 113.786 156.022 112.222 155.934 111.118C155.834 109.991 156.116 109.323 156.289 109.338Z" fill="#263238"/>
<path d="M155.207 81.9539C154.979 82.629 152.644 82.3148 149.904 82.6721C147.156 82.9715 144.948 83.8284 144.583 83.2241C144.42 82.9352 144.804 82.2994 145.697 81.644C146.581 80.9898 147.994 80.3664 149.639 80.1681C151.285 79.9728 152.792 80.2469 153.792 80.6757C154.798 81.1044 155.306 81.6329 155.207 81.9539Z" fill="#263238"/>
<path d="M176.738 81.5233C176.327 82.0875 174.717 81.5067 172.781 81.4832C170.846 81.3884 169.207 81.8707 168.828 81.2818C168.662 80.996 168.919 80.4311 169.634 79.8952C170.339 79.3617 171.519 78.9244 172.849 78.9638C174.179 79.0057 175.333 79.5139 176.007 80.0899C176.692 80.6683 176.918 81.2479 176.738 81.5233Z" fill="#263238"/>
<path d="M119.642 125.944C124.298 126.941 129.37 125.421 132.849 121.986C136.328 118.552 138.125 113.29 137.528 108.285C137.002 103.869 134.76 99.3756 136.201 95.1954C138.108 89.6686 145.402 87.9685 147.338 82.4528C148.463 79.2472 147.453 75.4976 148.729 72.3566C149.928 69.4022 152.854 67.7015 155.702 66.6075C158.551 65.5141 161.604 64.7588 163.996 62.7846C166.387 60.8103 167.879 57.0847 166.336 54.3164C153.705 55.9242 141.255 59.1366 129.337 63.8638C126.574 64.9597 123.671 66.2773 122.038 68.8854C120.309 71.6457 120.392 75.2124 120.537 78.5234C121.247 94.6706 121.956 110.817 122.665 126.964" fill="#263238"/>
<path d="M166.808 47.5071C167.245 52.0397 167.672 56.7009 166.508 61.0862C165.344 65.4715 162.201 69.5778 157.97 70.3287C155.966 70.6841 153.717 70.3299 152.069 71.5915C148.572 74.2686 151.435 80.5414 149.372 84.562C147.523 88.1668 142.554 88.4915 140.089 91.6534C137.373 95.1381 138.776 100.388 140.673 104.438C142.57 108.488 144.91 112.947 143.644 117.265C142.229 122.094 136.801 124.654 135.466 129.508C134.606 132.635 135.511 136.487 133.407 138.856C131.781 140.686 129.087 140.721 126.728 140.492C117.053 139.552 107.58 136.328 99.1934 131.118C100.617 128.634 101.41 125.746 101.465 122.838C99.8854 124.061 98.3055 125.283 96.7261 126.505C93.0837 121.683 89.4407 116.862 85.7983 112.041C87.9826 106.147 92.5368 101.292 98.0787 98.9511C101.383 97.5553 105.615 96.3689 106.39 92.6827C106.819 90.6413 104.513 86.9281 105.758 82.1898C105.758 82.1898 107.837 73.1672 112.754 70.6225C117.671 68.0772 116.989 66.5532 118.062 63.0784" fill="#263238"/>
<path d="M88.4994 110.554C88.5064 110.432 90.0248 110.488 92.7479 110.519C94.1074 110.521 95.7726 110.512 97.6733 110.279C99.5681 110.039 101.716 109.587 103.854 108.499C104.918 107.955 105.976 107.262 106.955 106.392C107.918 105.51 108.816 104.455 109.465 103.197C110.129 101.949 110.519 100.511 110.734 98.9456C110.965 97.3841 111.045 95.7153 111.292 93.9677C111.551 92.2214 111.987 90.3869 112.988 88.7219C113.479 87.8915 114.148 87.1344 114.948 86.5468C115.757 85.969 116.676 85.6012 117.592 85.3739C119.435 84.9187 121.268 84.9655 123.002 84.7487C124.733 84.5503 126.392 84.0514 127.499 82.7374C128.631 81.4537 129.239 79.6611 129.605 77.8606C129.971 76.0575 130.091 74.1412 130.443 72.2519C130.778 70.3725 131.374 68.4333 132.534 66.8859C133.11 66.1214 133.782 65.4629 134.505 64.9129C135.23 64.3621 136.013 63.947 136.8 63.5977C139.981 62.2437 143.275 62.2314 146.151 62.5536C149.047 62.8628 151.669 63.371 154.068 63.4745C155.264 63.5318 156.409 63.5102 157.461 63.3716C158.515 63.2312 159.494 62.9626 160.376 62.6207C162.147 61.9407 163.514 60.9421 164.434 59.9411C165.369 58.9438 165.858 57.9521 166.117 57.2609C166.384 56.5685 166.47 56.1724 166.536 56.1854C166.573 56.1897 166.589 56.6055 166.406 57.3638C166.231 58.119 165.799 59.2278 164.867 60.3637C163.95 61.5033 162.539 62.6503 160.683 63.4566C159.758 63.862 158.724 64.1903 157.598 64.3819C156.47 64.5716 155.28 64.6307 154.034 64.6086C151.54 64.5728 148.868 64.1219 146.041 63.8786C144.623 63.7542 143.178 63.7061 141.706 63.8509C140.238 64.0098 138.739 64.3357 137.331 64.964C135.924 65.5837 134.623 66.5323 133.673 67.8265C132.721 69.1183 132.203 70.7741 131.896 72.5476C131.571 74.326 131.465 76.2202 131.074 78.195C130.678 80.1342 130.032 82.1954 128.598 83.8364C127.89 84.647 126.982 85.284 126.028 85.6573C125.077 86.0435 124.106 86.2221 123.172 86.3343C121.302 86.5523 119.52 86.5117 117.926 86.9047C117.133 87.0969 116.397 87.3925 115.765 87.8348C115.145 88.287 114.61 88.8703 114.196 89.5572C113.352 90.9241 112.921 92.5756 112.666 94.1993C112.413 95.8434 112.31 97.5233 112.045 99.1723C111.796 100.817 111.333 102.456 110.553 103.857C109.791 105.264 108.77 106.41 107.697 107.347C106.608 108.27 105.451 108.983 104.3 109.53C101.984 110.624 99.7091 111.012 97.7527 111.173C95.7848 111.327 94.0952 111.242 92.7253 111.144C89.9859 110.919 88.4936 110.652 88.4994 110.554Z" fill="#E0E0E0"/>
<path d="M125.592 55.3771C125.775 55.4671 125.688 56.1773 125.269 57.2159C124.854 58.2532 124.078 59.598 122.978 60.8645C121.881 62.134 120.688 63.0642 119.763 63.6044C118.833 64.1453 118.182 64.3172 118.077 64.1342C117.855 63.7356 119.843 62.1353 121.866 59.7785C123.92 57.4512 125.195 55.1905 125.592 55.3771Z" fill="#E8505B"/>
<path d="M199.265 260.221L202.382 294.369L104.493 294.332L123.405 253.786L199.265 260.221Z" fill="#E8505B"/>
<path d="M202.235 220.277L221.282 250.088C221.282 250.088 225.175 217.368 225.535 218.103C225.896 218.838 204.187 186.769 204.187 186.769L202.235 220.277Z" fill="#EB996E"/>
<path d="M123.6 147.76C122.844 147.76 98.5693 158.253 95.7946 163.075C93.0199 167.897 110.367 258.737 110.367 258.737L199.265 260.679L200.142 217.279L206.771 159.207L170.01 146.049L165.108 141.513L155.15 159.916L127.791 141.295L123.6 147.76Z" fill="#E8505B"/>
<g opacity="0.3">
<path d="M119.909 291.353C125.802 289.723 130.661 285.124 134.042 279.743C137.422 274.363 139.502 268.2 141.496 262.089C143.49 255.978 145.458 249.787 148.649 244.278C151.001 240.22 153.972 236.612 156.927 233.026C158.337 231.316 159.771 229.583 161.571 228.354C163.804 226.83 166.453 226.179 169.042 225.555C173.581 224.461 178.119 223.367 182.658 222.273C184.358 221.863 186.095 221.437 187.571 220.451C189.046 219.465 190.238 217.795 190.228 215.944C183.438 216.674 176.579 216.449 169.793 217.222C163.007 217.995 156.118 219.871 150.698 224.277C145.238 228.715 141.735 235.325 138.993 242.021C132.327 258.298 129.204 276.281 120.382 291.356" fill="black"/>
</g>
<path d="M95.7946 163.075C95.7946 163.075 88.4199 168.209 86.485 184.568C85.0478 196.723 82.1744 231.123 82.1744 231.123L117.248 228.011L95.7946 163.075Z" fill="#E8505B"/>
<path d="M82.1751 231.123C82.1745 231.118 82.2342 231.107 82.3519 231.091C82.4859 231.075 82.6576 231.055 82.8728 231.029C83.3519 230.979 84.0235 230.909 84.8779 230.821C86.6416 230.652 89.1571 230.411 92.2566 230.115C98.5073 229.548 107.109 228.768 116.609 227.906C116.824 227.887 117.038 227.868 117.236 227.851L117.099 228.032C115.864 218.138 114.75 209.214 113.942 202.737C113.555 199.523 113.241 196.917 113.022 195.092C112.921 194.206 112.843 193.51 112.787 193.013C112.765 192.79 112.747 192.612 112.734 192.472C112.723 192.35 112.72 192.286 112.725 192.286C112.731 192.285 112.743 192.347 112.764 192.467C112.785 192.606 112.812 192.783 112.847 193.005C112.916 193.499 113.013 194.193 113.137 195.075C113.38 196.898 113.725 199.499 114.152 202.708C114.983 209.181 116.129 218.101 117.398 227.99L117.42 228.157L117.262 228.171C117.064 228.189 116.849 228.208 116.635 228.226C107.131 229.051 98.527 229.798 92.2746 230.34C89.1716 230.594 86.6532 230.8 84.8883 230.945C84.0316 231.007 83.3588 231.057 82.8786 231.092C82.6623 231.105 82.49 231.115 82.3554 231.123C82.236 231.129 82.1751 231.129 82.1751 231.123Z" fill="#263238"/>
<path d="M154.872 159.676C154.868 159.689 154.669 159.631 154.299 159.509C153.897 159.372 153.363 159.19 152.698 158.963C151.287 158.462 149.326 157.766 146.97 156.93L147.119 156.872C146.306 158.334 145.402 159.957 144.436 161.692L144.368 161.814L144.248 161.752C142.844 161.027 141.344 160.221 139.811 159.354C135.278 156.796 131.339 154.169 128.554 152.171C127.159 151.176 126.056 150.33 125.296 149.744C124.941 149.46 124.654 149.23 124.432 149.052C124.236 148.891 124.136 148.802 124.142 148.794C124.148 148.785 124.26 148.856 124.467 149C124.698 149.166 124.995 149.379 125.363 149.642C126.143 150.197 127.264 151.013 128.671 151.983C131.482 153.929 135.429 156.519 139.952 159.071C141.481 159.936 142.976 160.745 144.374 161.475L144.186 161.534C145.164 159.806 146.079 158.191 146.902 156.736L146.956 156.641L147.052 156.678C149.392 157.558 151.342 158.29 152.745 158.818C153.4 159.074 153.927 159.28 154.324 159.434C154.686 159.579 154.876 159.663 154.872 159.676Z" fill="#263238"/>
<path d="M169.574 146.189C169.584 146.19 169.58 146.293 169.565 146.487C169.547 146.681 169.526 146.968 169.474 147.334C169.382 148.067 169.216 149.125 168.911 150.409C168.606 151.692 168.17 153.206 167.535 154.824C167.217 155.633 166.853 156.469 166.437 157.315C166.228 157.737 166.007 158.162 165.772 158.587C165.657 158.799 165.531 159.023 165.356 159.223C165.19 159.42 164.916 159.607 164.612 159.571C164.312 159.537 164.092 159.346 163.916 159.168C163.738 158.982 163.594 158.789 163.442 158.605C163.142 158.233 162.846 157.866 162.555 157.505C161.976 156.784 161.416 156.088 160.881 155.423C160.618 155.1 160.342 154.797 160.024 154.622C159.71 154.435 159.357 154.464 159.094 154.682C158.826 154.894 158.629 155.208 158.422 155.493C158.218 155.78 158.022 156.055 157.833 156.319C157.099 157.336 156.494 158.173 156.042 158.8C155.843 159.064 155.678 159.283 155.542 159.465C155.426 159.614 155.36 159.69 155.351 159.683C155.343 159.676 155.392 159.588 155.493 159.426C155.616 159.235 155.766 159.004 155.947 158.725C156.38 158.084 156.959 157.226 157.661 156.184C157.845 155.916 158.036 155.637 158.235 155.346C158.436 155.061 158.628 154.731 158.944 154.469C159.253 154.188 159.775 154.142 160.144 154.37C160.523 154.575 160.815 154.899 161.091 155.229C161.63 155.89 162.194 156.582 162.779 157.3C163.071 157.66 163.368 158.026 163.67 158.397C163.97 158.756 164.265 159.201 164.64 159.252C165.012 159.292 165.295 158.829 165.512 158.425C165.745 158.005 165.965 157.584 166.175 157.168C166.59 156.333 166.955 155.507 167.277 154.709C167.921 153.112 168.374 151.619 168.704 150.351C169.033 149.083 169.23 148.037 169.357 147.313C169.487 146.589 169.55 146.185 169.574 146.189Z" fill="#263238"/>
<path d="M185.827 245.755C185.867 245.833 178.17 250.413 168.637 255.982C159.1 261.555 151.339 266.008 151.299 265.93C151.259 265.853 158.954 261.274 168.491 255.702C178.025 250.131 185.787 245.677 185.827 245.755Z" fill="#263238"/>
<path d="M180.512 263.753C180.516 263.841 175.56 264.194 169.444 264.541C163.326 264.887 158.364 265.096 158.359 265.008C158.354 264.92 163.309 264.567 169.428 264.22C175.544 263.873 180.507 263.665 180.512 263.753Z" fill="#263238"/>
<path d="M202.868 224.704L197.888 219.265L202.886 191.453L207.884 210.121L202.868 224.704Z" fill="#E8505B"/>
<path d="M199.156 258.633C199.151 258.633 199.147 258.584 199.145 258.49C199.144 258.377 199.144 258.239 199.142 258.072C199.147 257.677 199.153 257.141 199.16 256.464C199.186 255.039 199.222 253.027 199.267 250.553C199.36 245.562 199.489 238.668 199.566 231.052C199.641 223.435 199.629 216.539 199.51 211.55C199.46 209.056 199.361 207.04 199.285 205.648C199.239 204.974 199.202 204.439 199.174 204.046C199.166 203.879 199.159 203.742 199.153 203.629C199.15 203.534 199.151 203.486 199.156 203.485C199.161 203.484 199.17 203.532 199.184 203.625C199.198 203.737 199.214 203.874 199.235 204.04C199.276 204.433 199.332 204.966 199.402 205.639C199.515 207.03 199.646 209.048 199.723 211.544C199.898 216.536 199.943 223.436 199.869 231.057C199.791 238.674 199.628 245.57 199.481 250.56C199.396 253.032 199.327 255.044 199.278 256.468C199.247 257.144 199.222 257.68 199.203 258.074C199.192 258.241 199.183 258.379 199.176 258.491C199.167 258.586 199.161 258.634 199.156 258.633Z" fill="#263238"/>
<path d="M182.413 144.217C182.413 144.217 180.703 143.511 179.323 144.884C177.943 146.258 178.116 147.815 178.547 149.28C178.978 150.745 179.84 151.203 179.84 151.203L185.531 148.364L182.413 144.217Z" fill="#EB996E"/>
<path d="M177.228 153.808C177.228 153.808 174.845 155.54 174.759 156.064C174.697 156.44 175.13 156.914 175.804 156.671C176.392 156.459 178.039 155.403 178.039 155.403L177.228 153.808Z" fill="#E8505B"/>
<g opacity="0.3">
<path d="M177.228 153.808C177.228 153.808 174.845 155.54 174.759 156.064C174.697 156.44 175.13 156.914 175.804 156.671C176.392 156.459 178.039 155.403 178.039 155.403L177.228 153.808Z" fill="black"/>
</g>
<path d="M182.836 147.419L176.27 153.994L177.731 156.147L184.824 153.46L221.029 131.635C222.356 130.835 222.78 129.017 221.958 127.652C221.204 126.399 219.664 125.981 218.436 126.696L182.836 147.419Z" fill="#455A64"/>
<path d="M252.013 230.135C251.608 223.894 214.786 169.879 212.485 166.51L206.117 152.488L203.414 140.672C203.414 140.672 188.962 131.839 187.818 131.839C186.674 131.839 181.06 139.458 180.956 140.672C180.852 141.887 181.684 142.77 181.684 142.77L182.412 150.5C182.412 150.5 181.58 152.212 182.204 153.785C182.828 155.358 185.323 155.358 185.323 155.358L184.388 158.703C184.388 158.703 184.595 162.426 185.22 163.088C185.461 163.345 186.693 163.531 188.062 163.26C189.259 163.024 189.594 161.171 189.538 160.284C189.924 160.944 191.225 160.282 191.225 160.282C191.35 161.852 192.891 163.024 192.891 163.024C192.891 163.024 195.097 172.474 195.409 173.689C195.721 174.903 197.697 177.995 200.608 179.1C200.869 179.199 201.103 179.308 201.327 179.421C203.456 187.895 218.18 246.175 221.283 250.089C224.63 254.31 233.697 256.955 241.855 256.51C250.013 256.065 252.432 236.578 252.013 230.135Z" fill="#FFBE9D"/>
<path d="M195.588 139.279C195.588 139.323 194.804 139.374 193.536 139.418C192.267 139.461 190.514 139.498 188.578 139.504C187.609 139.508 186.686 139.503 185.847 139.485C185.427 139.477 185.028 139.464 184.651 139.44C184.306 139.408 183.987 139.53 183.713 139.671C183.164 139.966 182.782 140.34 182.52 140.585C182.26 140.837 182.124 140.988 182.107 140.973C182.092 140.96 182.198 140.781 182.437 140.497C182.679 140.219 183.041 139.812 183.614 139.469C183.898 139.307 184.257 139.15 184.665 139.174C185.033 139.186 185.431 139.189 185.85 139.19C186.697 139.188 187.615 139.185 188.577 139.183C190.47 139.186 192.183 139.189 193.534 139.191C194.802 139.206 195.587 139.234 195.588 139.279Z" fill="#EB996E"/>
<path d="M191.24 139.279C191.228 139.315 190.895 139.218 190.448 138.895C189.996 138.582 189.436 138.059 188.896 137.407C188.839 137.337 188.784 137.267 188.731 137.201L188.984 137.032C189.081 137.267 189.057 137.514 188.998 137.713C188.933 137.911 188.84 138.079 188.74 138.222C188.541 138.513 188.325 138.727 188.139 138.896C187.764 139.231 187.498 139.379 187.476 139.345C187.452 139.31 187.672 139.103 187.999 138.737C188.16 138.554 188.351 138.331 188.517 138.059C188.682 137.795 188.829 137.445 188.712 137.167L188.289 136.161L188.965 136.998C189.016 137.061 189.07 137.127 189.124 137.194C189.65 137.829 190.172 138.363 190.575 138.711C190.973 139.07 191.26 139.233 191.24 139.279Z" fill="#EB996E"/>
<path d="M194.548 146.174C194.545 146.222 193.86 146.214 192.755 146.248C191.649 146.28 190.124 146.365 188.443 146.519C186.765 146.633 185.31 147.141 184.351 147.703C183.386 148.257 182.871 148.748 182.836 148.703C182.823 148.688 182.938 148.551 183.172 148.33C183.405 148.11 183.765 147.814 184.246 147.506C185.198 146.878 186.71 146.315 188.418 146.2C190.106 146.045 191.643 145.996 192.754 146.022C193.866 146.045 194.55 146.133 194.548 146.174Z" fill="#EB996E"/>
<path d="M187.728 146.435C187.739 146.506 186.777 146.531 185.867 145.792C184.97 145.037 184.756 144.041 184.824 144.036C184.913 143.988 185.242 144.867 186.053 145.539C186.866 146.208 187.749 146.331 187.728 146.435Z" fill="#EB996E"/>
<path d="M194.404 150.732C194.421 150.761 193.989 151.077 193.201 151.387C192.416 151.705 191.282 151.962 190.041 152.198C188.798 152.435 187.696 152.717 186.941 153.055C186.184 153.382 185.762 153.694 185.731 153.648C185.711 153.625 186.095 153.239 186.855 152.847C187.61 152.446 188.738 152.12 189.985 151.883C191.231 151.646 192.349 151.428 193.134 151.171C193.92 150.923 194.38 150.683 194.404 150.732Z" fill="#EB996E"/>
<path d="M188.59 156.989C188.607 156.956 188.899 157.068 189.277 157.413C189.658 157.745 190.081 158.407 190.155 159.233C190.2 159.637 190.133 160.072 189.948 160.381C189.786 160.685 189.59 160.937 189.391 161.106C188.984 161.447 188.647 161.451 188.646 161.418C188.629 161.367 188.927 161.281 189.249 160.937C189.408 160.766 189.566 160.53 189.704 160.24C189.848 159.967 189.891 159.633 189.855 159.266C189.785 158.525 189.448 157.93 189.128 157.575C188.812 157.212 188.564 157.031 188.59 156.989Z" fill="#EB996E"/>
<path d="M192.947 156.502C192.982 156.521 192.914 156.774 192.747 157.166C192.577 157.548 192.293 158.104 191.754 158.503C191.487 158.699 191.185 158.823 190.897 158.85C190.608 158.878 190.349 158.815 190.154 158.719C189.754 158.518 189.65 158.223 189.682 158.21C189.719 158.177 189.876 158.391 190.231 158.507C190.581 158.634 191.117 158.596 191.583 158.238C192.053 157.893 192.347 157.403 192.561 157.056C192.77 156.703 192.908 156.481 192.947 156.502Z" fill="#EB996E"/>
<path d="M194.246 161.22C194.252 161.257 194.001 161.352 193.58 161.304C193.166 161.26 192.579 161.032 192.136 160.51C191.695 159.986 191.544 159.341 191.548 158.9C191.548 158.451 191.664 158.195 191.698 158.205C191.744 158.215 191.707 158.478 191.761 158.884C191.81 159.285 191.977 159.84 192.361 160.296C192.746 160.75 193.247 160.986 193.618 161.082C193.991 161.18 194.241 161.17 194.246 161.22Z" fill="#EB996E"/>
<path d="M218.97 133.743C218.908 133.806 217.948 132.741 217.048 131.214C216.13 129.698 215.631 128.323 215.711 128.289C215.786 128.256 216.396 129.545 217.302 131.042C218.193 132.551 219.031 133.686 218.97 133.743Z" fill="#263238"/>
<path d="M219.592 132.749C216.494 134.661 213.347 136.485 210.155 138.216L210.101 138.257C209.962 138.442 210.102 138.741 210.31 138.824C210.519 138.908 210.752 138.841 210.961 138.759C211.5 138.548 212.002 138.245 212.5 137.943C214.598 136.673 216.696 135.403 218.793 134.133C219.04 133.984 219.293 133.828 219.468 133.592C219.644 133.356 219.725 133.015 219.592 132.749Z" fill="#263238"/>
<path d="M126.091 232.491L115.9 249.19L115.353 228.179L86.898 230.704C86.8475 231.523 88.9431 256.25 92.0977 277.582C93.4734 286.886 102.404 293.94 111.271 293.94C118.266 293.94 124.628 289.639 127.588 282.909L145.024 236.547L126.091 232.491Z" fill="#FFBE9D"/>
<path d="M147.17 166.693C147.127 166.411 148.036 162.51 148.036 162.51C148.036 162.51 192.241 160.166 192.337 160.226C192.432 160.286 195.001 161.93 195.001 161.93L147.17 166.693Z" fill="white"/>
<path d="M147.17 166.693C147.17 166.693 147.259 166.676 147.424 166.656C147.601 166.635 147.843 166.607 148.152 166.571C148.804 166.501 149.739 166.4 150.937 166.271C153.362 166.018 156.848 165.654 161.16 165.204C169.792 164.328 181.723 163.117 194.987 161.771L194.924 162.068C194.456 161.769 193.952 161.446 193.445 161.122L192.623 160.596C192.486 160.525 192.35 160.385 192.213 160.37C192.076 160.389 191.951 160.399 191.811 160.403C191.177 160.432 190.545 160.462 189.917 160.491C188.66 160.553 187.416 160.615 186.187 160.675C183.728 160.799 181.33 160.92 179.003 161.038C174.353 161.273 169.994 161.494 166.037 161.694C158.142 162.079 151.856 162.386 148.038 162.573L148.093 162.525C147.785 163.855 147.546 164.891 147.379 165.612C147.222 166.321 147.17 166.693 147.17 166.693C147.145 166.695 147.181 166.307 147.32 165.599C147.456 164.887 147.676 163.841 147.978 162.495L147.988 162.45L148.033 162.447C151.849 162.231 158.134 161.875 166.025 161.428C169.982 161.216 174.34 160.982 178.99 160.732C181.316 160.612 183.715 160.486 186.173 160.358C187.402 160.297 188.646 160.235 189.903 160.171C190.532 160.142 191.164 160.112 191.8 160.082C191.978 160.075 192.172 160.077 192.353 160.085C192.52 160.119 192.634 160.245 192.778 160.321L193.6 160.847C194.106 161.171 194.611 161.493 195.079 161.792L195.473 162.045L195.015 162.09C181.704 163.39 169.731 164.559 161.069 165.405C156.768 165.813 153.29 166.143 150.871 166.372C149.686 166.48 148.761 166.564 148.116 166.622C147.815 166.648 147.579 166.667 147.405 166.682C147.246 166.693 147.167 166.697 147.17 166.693Z" fill="#263238"/>
<path d="M147.402 167.461L147.17 166.693L146.584 162.776L105.148 153.803L101.114 157.025L107.186 214.15L149.294 225.286L147.402 167.461Z" fill="white"/>
<path d="M147.402 167.461C147.402 167.461 147.412 167.551 147.422 167.73C147.431 167.917 147.443 168.182 147.459 168.527C147.487 169.24 147.528 170.282 147.581 171.638C147.679 174.371 147.822 178.361 148.004 183.426C148.35 193.579 148.841 208.034 149.428 225.282L149.435 225.47L149.262 225.424C136.754 222.122 122.398 218.331 107.15 214.305L107.048 214.278L107.037 214.167C106.893 212.819 106.739 211.366 106.584 209.906C104.54 190.612 102.622 172.506 100.984 157.041L100.976 156.961L101.037 156.913C102.42 155.81 103.76 154.74 105.072 153.694L105.118 153.658L105.174 153.67C125.16 158.043 140.038 161.298 146.593 162.732L146.622 162.739L146.626 162.769C146.926 164.886 147.106 166.157 147.181 166.691L147.181 166.689C147.38 167.363 147.402 167.461 147.402 167.461C147.402 167.461 147.365 167.365 147.159 166.696L147.159 166.695C147.075 166.162 146.875 164.895 146.542 162.784L146.575 162.82C140.014 161.414 125.125 158.223 105.122 153.935L105.224 153.911C103.914 154.959 102.575 156.031 101.194 157.137L101.245 157.01C102.895 172.474 104.826 190.578 106.884 209.871C107.038 211.331 107.193 212.784 107.337 214.132L107.223 213.995C122.468 218.033 136.821 221.836 149.327 225.149L149.161 225.292C148.619 208.05 148.166 193.599 147.847 183.448C147.697 178.38 147.579 174.388 147.498 171.653C147.462 170.294 147.435 169.25 147.416 168.535C147.409 168.188 147.404 167.922 147.401 167.734C147.398 167.554 147.402 167.461 147.402 167.461Z" fill="#263238"/>
<path d="M99.538 156.553L103.436 214.263L149.295 224.358L195.533 215.531L196.067 161.725L149.994 164.5C149.994 164.5 149.715 166.692 146.335 166.614L144.063 165.788L101.851 157.032L99.538 156.553Z" fill="#455A64"/>
<path d="M151.194 226.932C151.11 226.934 150.775 212.959 150.443 195.721C150.112 178.478 149.91 164.503 149.994 164.501C150.077 164.499 150.413 178.471 150.744 195.715C151.076 212.952 151.277 226.93 151.194 226.932Z" fill="#263238"/>
<path d="M145.297 225.287C145.292 225.287 145.284 225.235 145.275 225.134C145.266 225.014 145.255 224.866 145.241 224.684C145.216 224.262 145.182 223.684 145.138 222.953C145.05 221.45 144.96 219.273 144.854 216.582C144.65 211.201 144.453 203.763 144.304 195.548C144.154 187.33 144.075 179.89 144.042 174.505C144.034 171.833 144.029 169.661 144.025 168.128C144.03 167.396 144.034 166.816 144.038 166.394C144.043 166.212 144.046 166.064 144.049 165.943C144.054 165.841 144.059 165.789 144.064 165.789C144.069 165.789 144.075 165.841 144.081 165.942C144.086 166.063 144.092 166.211 144.099 166.393C144.11 166.815 144.125 167.394 144.143 168.127C144.17 169.66 144.209 171.831 144.257 174.502C144.346 179.91 144.471 187.336 144.607 195.542C144.755 203.756 144.919 211.192 145.068 216.574C145.147 219.244 145.211 221.415 145.256 222.948C145.276 223.68 145.291 224.259 145.302 224.681C145.304 224.863 145.305 225.012 145.306 225.133C145.305 225.234 145.302 225.286 145.297 225.287Z" fill="#263238"/>
<path d="M139.574 243.966C139.53 243.986 139.469 244.013 139.397 244.045C139.453 244.02 139.513 243.993 139.574 243.966Z" fill="#FFBE9D"/>
<path d="M139.625 243.943C139.618 243.946 139.608 243.951 139.597 243.956C139.607 243.951 139.615 243.948 139.625 243.943Z" fill="#FFBE9D"/>
<path d="M139.647 243.934C139.639 243.937 139.633 243.94 139.626 243.943C139.639 243.937 139.647 243.934 139.647 243.934Z" fill="#FFBE9D"/>
<path d="M139.597 243.956C139.589 243.959 139.582 243.962 139.574 243.966C139.583 243.962 139.59 243.959 139.597 243.956Z" fill="#FFBE9D"/>
<path d="M160.449 210.881C162.694 208.53 164.893 206.135 165.397 205.264C166.505 203.353 164.705 202.03 163.459 201.441C162.213 200.853 145.877 215.703 145.877 215.703C145.877 215.703 159.582 202.764 160.413 201.882C161.244 201 161.797 199.824 160.967 197.471C160.136 195.119 157.506 196.001 156.537 196.148C155.568 196.295 140.062 210.116 140.062 210.116C140.062 210.116 149.061 200.853 149.892 200.117C150.722 199.382 150.999 198.059 150.722 196.295C150.446 194.53 148.646 194.677 147.399 194.677C146.154 194.677 126.676 213.056 126.676 213.056L127.603 222.76L124.305 237.621L139.647 243.932C142.277 242.756 147.261 235.871 148.23 234.522C149.199 233.173 154.736 223.201 154.736 223.201C156.952 221.878 160.136 216.584 161.382 215.114C162.627 213.644 162.212 212.909 161.52 211.732C161.148 211.099 157.531 214.168 154.267 217.14L155.014 216.437C155.014 216.438 157.765 213.692 160.449 210.881Z" fill="#FFBE9D"/>
<path d="M132.62 216.9C132.638 216.93 132.34 217.175 131.758 217.325C131.188 217.476 130.31 217.483 129.479 217.04C128.65 216.594 128.133 215.84 127.909 215.262C127.677 214.677 127.685 214.277 127.718 214.274C127.767 214.264 127.836 214.64 128.102 215.164C128.361 215.684 128.862 216.348 129.616 216.754C130.37 217.157 131.172 217.189 131.719 217.102C132.274 217.017 132.599 216.852 132.62 216.9Z" fill="#EB996E"/>
<path d="M138.94 222.436C138.945 222.472 138.635 222.569 138.123 222.508C137.618 222.452 136.907 222.195 136.33 221.607C135.753 221.018 135.482 220.274 135.409 219.741C135.331 219.2 135.409 218.867 135.444 218.871C135.492 218.872 135.492 219.201 135.617 219.693C135.738 220.182 136.017 220.843 136.539 221.376C137.062 221.907 137.694 222.176 138.159 222.285C138.628 222.398 138.937 222.385 138.94 222.436Z" fill="#EB996E"/>
<path d="M145.949 228.011C145.948 228.047 145.571 228.084 144.987 227.918C144.409 227.758 143.626 227.35 143.005 226.608C142.384 225.865 142.096 224.991 142.014 224.362C141.928 223.726 142.007 223.333 142.041 223.337C142.09 223.338 142.09 223.726 142.224 224.318C142.355 224.907 142.656 225.705 143.231 226.394C143.807 227.082 144.517 227.494 145.053 227.701C145.59 227.914 145.954 227.959 145.949 228.011Z" fill="#EB996E"/>
<path d="M118.133 245.866C118.202 245.915 114.968 251.261 110.911 257.805C106.851 264.351 103.505 269.617 103.436 269.568C103.366 269.52 106.599 264.175 110.658 257.628C114.716 251.084 118.063 245.817 118.133 245.866Z" fill="#EB996E"/>
<path d="M168.433 182.164L168.101 186.302L167.519 186.372L165.655 183.727L165.422 186.623L164.721 186.708L165.052 182.569L165.635 182.499L167.504 185.145L167.731 182.248L168.433 182.164Z" fill="#263238"/>
<path d="M169.035 184.498C168.89 183.128 169.708 181.952 171.112 181.785C172.261 181.647 173.011 182.271 173.12 183.294C173.265 184.664 172.447 185.84 171.043 186.008C169.894 186.146 169.144 185.522 169.035 184.498ZM172.412 183.426C172.341 182.761 171.879 182.361 171.117 182.452C170.159 182.566 169.644 183.431 169.744 184.366C169.814 185.032 170.27 185.433 171.032 185.342C171.991 185.227 172.511 184.362 172.412 183.426Z" fill="#263238"/>
<path d="M174.715 182.056L173.453 182.207L173.505 181.555L176.738 181.168L176.68 181.82L175.417 181.971L175.143 185.458L174.435 185.543L174.715 182.056Z" fill="#263238"/>
<path d="M177.923 181.664L177.838 182.74L179.684 182.52L179.635 183.152L177.785 183.373L177.696 184.514L179.852 184.255L179.8 184.9L176.941 185.243L177.273 181.104L180.055 180.771L180.002 181.416L177.923 181.664Z" fill="#263238"/>
<path d="M180.318 184.417L180.554 183.79C180.899 184.025 181.379 184.137 181.842 184.082C182.397 184.016 182.733 183.758 182.696 183.4C182.615 182.648 180.736 183.272 180.598 181.971C180.513 181.174 181.134 180.583 182.119 180.466C182.609 180.407 183.085 180.473 183.43 180.654L183.215 181.284C182.911 181.114 182.528 181.05 182.147 181.095C181.57 181.164 181.254 181.454 181.291 181.806C181.372 182.563 183.254 181.963 183.385 183.201C183.47 184.005 182.844 184.595 181.843 184.715C181.244 184.786 180.646 184.652 180.318 184.417Z" fill="#263238"/>
<path d="M186.484 186.15C186.496 186.238 181.076 187.152 174.379 188.194C167.68 189.235 162.241 190.007 162.229 189.92C162.217 189.832 167.636 188.917 174.335 187.876C181.032 186.835 186.472 186.063 186.484 186.15Z" fill="#263238"/>
<path d="M186.903 188.626C186.915 188.713 182.038 189.604 176.01 190.614C169.979 191.625 165.081 192.374 165.069 192.286C165.056 192.199 169.932 191.309 175.963 190.298C181.991 189.287 186.889 188.538 186.903 188.626Z" fill="#263238"/>
<path d="M270.491 294.331C270.491 294.42 214.302 294.491 145.006 294.491C75.6854 294.491 19.5089 294.42 19.5089 294.331C19.5089 294.242 75.6854 294.171 145.006 294.171C214.302 294.171 270.491 294.243 270.491 294.331Z" fill="#263238"/>
</svg>
